<svg width="43" height="43" viewBox="0 0 43 43" fill="none" xmlns="http://www.w3.org/2000/svg">
<path d="M30.8 15.6002C30.8 15.0002 30.6 14.5002 30.3 14.0002L41 3.2002C41.3 2.9002 41.3 2.5002 41 2.3002C40.7 2.0002 40.3 2.0002 40.1 2.3002L29.4 13.0002C28.2 12.3002 26.6 12.4002 25.6 13.4002L24.3 14.7002C23.1 14.0002 21.5 14.1002 20.6 15.1002L7.69998 28.0002L6.49998 26.8002C6.19998 26.5002 5.79998 26.5002 5.59998 26.8002C5.39998 27.1002 5.29998 27.5002 5.59998 27.7002L8.49998 30.6002L4.29998 34.8002L2.99998 33.6002C2.69998 33.3002 2.29998 33.3002 2.09998 33.6002C1.89998 33.9002 1.79998 34.3002 2.09998 34.5002L3.79998 36.2002L8.79998 41.2002C8.89998 41.3002 9.09998 41.4002 9.29998 41.4002C9.49998 41.4002 9.59998 41.3002 9.79998 41.2002C10.1 40.9002 10.1 40.5002 9.79998 40.3002L8.59998 39.1002L12.8 34.9002L14 36.1002L15.7 37.8002C15.8 37.9002 16 38.0002 16.2 38.0002C16.4 38.0002 16.5 37.9002 16.7 37.8002C17 37.5002 17 37.1002 16.7 36.9002L15.5 35.7002L18.4 32.8002L28.4 22.8002C29.4 21.8002 29.6 20.2002 28.8 19.0002L30.1 17.7002C30.4 17.1002 30.8 16.4002 30.8 15.6002ZM7.59998 38.2002L5.19998 35.8002L9.39998 31.6002L11.8 34.0002L7.59998 38.2002ZM27.3 21.8002L24.4 24.7002L23.2 23.5002C22.9 23.2002 22.5 23.2002 22.3 23.5002C22.1 23.8002 22 24.2002 22.3 24.4002L23.5 25.6002L21 28.0002L19.8 26.8002C19.5 26.5002 19.1 26.5002 18.9 26.8002C18.7 27.1002 18.6 27.5002 18.9 27.7002L20.1 28.9002L17.7 31.3002L16.5 30.1002C16.2 29.8002 15.8 29.8002 15.6 30.1002C15.4 30.4002 15.3 30.8002 15.6 31.0002L16.8 32.2002L14.4 34.6002L9.79998 30.0002L8.59998 29.0002L21.5 16.0002C22.1 15.4002 23.3 15.4002 23.9 16.0002L27.2 19.3002C28 20.1002 28 21.1002 27.3 21.8002ZM29 16.8002L27.7 18.0002L25.3 15.6002L26.5 14.4002C27.1 13.7002 28.3 13.8002 28.9 14.4002C29.2 14.7002 29.4 15.2002 29.4 15.6002C29.4 16.0002 29.3 16.5002 29 16.8002Z" fill="white"/>
<path d="M40.5999 27.1998C40.9999 27.1998 41.2999 26.8998 41.2999 26.4998C41.2999 26.0998 40.9999 25.7998 40.5999 25.7998H31.0999C30.6999 25.7998 30.3999 26.0998 30.3999 26.4998C30.3999 26.8998 30.6999 27.1998 31.0999 27.1998H32.7999V30.6998C31.3999 30.9998 30.3999 32.1998 30.3999 33.5998V40.6998C30.3999 41.0998 30.6999 41.3998 31.0999 41.3998H40.5999C40.9999 41.3998 41.2999 41.0998 41.2999 40.6998V33.5998C41.2999 32.1998 40.2999 30.9998 38.8999 30.6998V27.1998H40.5999ZM31.7999 40.0998V36.6998H39.9999V40.0998H31.7999ZM38.1999 31.8998C39.0999 31.8998 39.8999 32.6998 39.8999 33.5998V35.2998H31.6999V33.5998C31.6999 32.6998 32.4999 31.8998 33.3999 31.8998C33.7999 31.8998 34.0999 31.5998 34.0999 31.1998V27.0998H37.4999V31.1998C37.5999 31.6998 37.8999 31.8998 38.1999 31.8998Z" fill="white"/>
</svg>
