<svg width="43" height="43" viewBox="0 0 43 43" fill="none" xmlns="http://www.w3.org/2000/svg">
<path d="M21.5996 13.6006C19.9996 13.6006 18.5996 14.9006 18.5996 16.6006C18.5996 18.2006 19.8996 19.6006 21.5996 19.6006C23.1996 19.6006 24.5996 18.3006 24.5996 16.6006C24.5996 14.9006 23.1996 13.6006 21.5996 13.6006ZM21.5996 18.2006C20.6996 18.2006 19.8996 17.4006 19.8996 16.5006C19.8996 15.6006 20.6996 14.8006 21.5996 14.8006C22.4996 14.8006 23.2996 15.6006 23.2996 16.5006C23.2996 17.5006 22.4996 18.2006 21.5996 18.2006Z" fill="white"/>
<path d="M13.4996 17.2004H12.6996C12.6996 17.2004 12.5996 17.2004 12.5996 17.1004V16.3004C12.5996 15.5004 11.9996 14.9004 11.1996 14.9004H10.2996C9.49961 14.9004 8.89961 15.5004 8.89961 16.3004V17.1004C8.89961 17.1004 8.89961 17.2004 8.79961 17.2004H7.99961C7.19961 17.2004 6.59961 17.8004 6.59961 18.6004V19.5004C6.59961 20.3004 7.19961 20.9004 7.99961 20.9004H8.79961C8.79961 20.9004 8.89961 20.9004 8.89961 21.0004V21.8004C8.89961 22.6004 9.49961 23.2004 10.2996 23.2004H11.1996C11.9996 23.2004 12.5996 22.6004 12.5996 21.8004V21.0004C12.5996 21.0004 12.5996 20.9004 12.6996 20.9004H13.4996C14.2996 20.9004 14.8996 20.3004 14.8996 19.5004V18.6004C14.8996 17.8004 14.1996 17.2004 13.4996 17.2004ZM13.5996 19.5004L12.6996 19.6004C11.8996 19.6004 11.2996 20.2004 11.2996 21.0004V21.8004C11.2996 21.8004 11.2996 21.9004 11.1996 21.9004H10.2996C10.2996 21.9004 10.1996 21.9004 10.1996 21.8004V21.0004C10.1996 20.2004 9.59961 19.6004 8.79961 19.6004H7.99961C7.99961 19.6004 7.89961 19.6004 7.89961 19.5004V18.6004C7.89961 18.6004 7.89961 18.5004 7.99961 18.5004H8.79961C9.59961 18.5004 10.1996 17.9004 10.1996 17.1004V16.3004C10.1996 16.3004 10.1996 16.2004 10.2996 16.2004H11.1996C11.1996 16.2004 11.2996 16.2004 11.2996 16.3004V17.1004C11.2996 17.9004 11.8996 18.5004 12.6996 18.5004H13.4996C13.4996 18.5004 13.5996 18.5004 13.5996 18.6004V19.5004Z" fill="white"/>
<path d="M32.5997 18.3C33.5997 18.3 34.4997 17.5 34.4997 16.4C34.4997 15.3 33.6997 14.5 32.5997 14.5C31.4997 14.5 30.6997 15.3 30.6997 16.4C30.6997 17.5 31.5997 18.3 32.5997 18.3ZM32.5997 15.9C32.8997 15.9 33.1997 16.1 33.1997 16.5C33.1997 16.9 32.8997 17 32.5997 17C32.2997 17 31.9997 16.7 31.9997 16.4C31.9997 16.1 32.2997 15.9 32.5997 15.9Z" fill="white"/>
<path d="M32.5997 21.1006C31.5997 21.1006 30.6997 21.9006 30.6997 23.0006C30.6997 24.1006 31.4997 24.9006 32.5997 24.9006C33.6997 24.9006 34.4997 24.1006 34.4997 23.0006C34.4997 21.9006 33.5997 21.1006 32.5997 21.1006ZM32.5997 23.5006C32.2997 23.5006 31.9997 23.3006 31.9997 22.9006C31.9997 22.5006 32.1997 22.3006 32.5997 22.3006C32.9997 22.3006 33.1997 22.5006 33.1997 22.9006C33.1997 23.3006 32.8997 23.5006 32.5997 23.5006Z" fill="white"/>
<path d="M35.7999 17.7998C34.7999 17.7998 33.8999 18.5998 33.8999 19.6998C33.8999 20.7998 34.6999 21.5998 35.7999 21.5998C36.8999 21.5998 37.6999 20.7998 37.6999 19.6998C37.6999 18.5998 36.8999 17.7998 35.7999 17.7998ZM35.7999 20.2998C35.4999 20.2998 35.1999 20.0998 35.1999 19.6998C35.1999 19.2998 35.3999 19.0998 35.7999 19.0998C36.1999 19.0998 36.3999 19.2998 36.3999 19.6998C36.3999 20.0998 36.1999 20.2998 35.7999 20.2998Z" fill="white"/>
<path d="M29.2999 17.7998C28.2999 17.7998 27.3999 18.5998 27.3999 19.6998C27.3999 20.7998 28.1999 21.5998 29.2999 21.5998C30.3999 21.5998 31.1999 20.7998 31.1999 19.6998C31.1999 18.5998 30.2999 17.7998 29.2999 17.7998ZM29.2999 20.2998C28.9999 20.2998 28.6999 20.0998 28.6999 19.6998C28.6999 19.2998 28.8999 19.0998 29.2999 19.0998C29.6999 19.0998 29.8999 19.2998 29.8999 19.6998C29.8999 20.0998 29.5999 20.2998 29.2999 20.2998Z" fill="white"/>
<path d="M39.2998 15.8002L38.3998 13.5002C37.9998 12.6002 37.5998 11.7002 37.0998 10.9002C36.6998 10.2002 35.9998 9.7002 35.1998 9.5002V8.5002C35.1998 7.5002 34.3998 6.7002 33.3998 6.7002H29.2998C28.2998 6.7002 27.4998 7.5002 27.4998 8.5002V9.5002C26.9998 9.6002 26.5998 9.8002 26.1998 10.2002L25.8998 10.5002C25.5998 10.8002 25.1998 10.9002 24.7998 10.9002H18.4998C18.0998 10.9002 17.6998 10.8002 17.3998 10.5002L16.9998 10.2002C16.5998 9.9002 16.1998 9.6002 15.6998 9.5002V8.5002C15.6998 7.5002 14.8998 6.7002 13.8998 6.7002H9.7998C8.7998 6.7002 7.9998 7.5002 7.9998 8.5002V9.5002C7.1998 9.7002 6.4998 10.2002 6.0998 10.9002C4.7998 13.2002 2.4998 18.0002 1.9998 24.8002C1.9998 24.9002 1.8998 26.0002 1.8998 27.2002H2.4998L1.7998 27.3002V27.5002C1.7998 32.7002 4.0998 34.2002 5.3998 34.5002C5.7998 34.6002 6.1998 34.7002 6.5998 34.7002C9.3998 34.7002 12.5998 32.3002 14.9998 28.5002C15.2998 28.0002 15.7998 27.7002 16.3998 27.7002H26.5998C27.1998 27.7002 27.6998 28.0002 27.9998 28.5002C30.6998 32.9002 34.5998 35.4002 37.5998 34.5002C38.8998 34.1002 41.1998 32.7002 41.1998 27.5002C41.1998 23.4002 40.5998 19.5002 39.2998 15.8002ZM28.6998 8.6002C28.6998 8.3002 28.9998 8.0002 29.2998 8.0002H33.3998C33.6998 8.0002 33.8998 8.2002 33.8998 8.5002V9.4002H28.6998V8.6002ZM9.1998 8.6002C9.1998 8.3002 9.4998 8.0002 9.7998 8.0002H13.8998C14.1998 8.0002 14.3998 8.2002 14.3998 8.5002V9.4002H9.1998V8.6002ZM37.2998 33.2002C34.9998 33.9002 31.4998 31.6002 29.1998 27.7002C28.6998 26.8002 27.6998 26.3002 26.6998 26.3002H16.4998C15.4998 26.3002 14.4998 26.8002 13.9998 27.7002C11.5998 31.5002 8.19981 33.8002 5.89981 33.2002C4.19981 32.7002 3.1998 30.7002 3.1998 27.4002V27.2002V27.1002C3.1998 26.1002 3.2998 24.9002 3.2998 24.9002C3.7998 18.3002 5.8998 13.7002 7.1998 11.6002C7.4998 11.1002 7.9998 10.8002 8.5998 10.8002H14.9998C15.3998 10.8002 15.7998 10.9002 16.0998 11.2002L16.3998 11.5002C16.8998 12.0002 17.5998 12.3002 18.2998 12.3002H24.5998C25.2998 12.3002 25.9998 12.0002 26.4998 11.5002L26.7998 11.2002C27.0998 10.9002 27.4998 10.8002 27.8998 10.8002H34.3998C34.9998 10.8002 35.4998 11.1002 35.7998 11.6002C36.1998 12.4002 36.6998 13.2002 36.9998 14.0002L37.8998 16.3002C39.0998 19.8002 39.6998 23.6002 39.6998 27.4002C39.8998 30.7002 38.9998 32.7002 37.2998 33.2002Z" fill="white"/>
</svg>
