<svg width="43" height="43" viewBox="0 0 43 43" fill="none" xmlns="http://www.w3.org/2000/svg">
<path d="M21.6 6.19922C13 6.19922 6 13.1992 6 21.6992C6 25.6992 7.5 29.4992 10.3 32.3992C10.4 32.4992 11.3 33.4992 12.4 34.2992C15.1 36.2992 18.2 37.2992 21.6 37.2992C30.2 37.2992 37.2 30.2992 37.2 21.6992C37.2 13.0992 30.2 6.19922 21.6 6.19922ZM21.6 7.49922C29.5 7.49922 35.9 13.8992 35.9 21.7992C35.9 23.5992 35.5 25.2992 34.9 26.8992C34.5 26.9992 34 27.0992 33.3 27.0992C32 27.0992 31.4 26.7992 30.7 26.5992C30 26.2992 29.2 25.8992 27.6 25.8992C26 25.8992 25.2 26.1992 24.5 26.5992C23.8 26.8992 23.2 27.0992 21.9 27.0992C20.6 27.0992 20 26.7992 19.3 26.5992C18.6 26.2992 17.8 25.8992 16.2 25.8992C14.6 25.8992 13.8 26.1992 13.1 26.5992C12.4 26.8992 11.8 27.0992 10.5 27.0992C9.4 27.0992 8.7 26.8992 8.2 26.6992C7.6 25.0992 7.3 23.4992 7.3 21.7992C7.3 13.8992 13.7 7.49922 21.6 7.49922ZM21.6 35.9992C18.6 35.9992 15.6 35.0992 13.2 33.1992C12.1 32.4992 11.3 31.5992 11.3 31.4992C10.3 30.4992 9.5 29.3992 8.9 28.0992C9.4 28.1992 9.9 28.2992 10.5 28.2992C12.1 28.2992 12.9 27.9992 13.6 27.5992C14.3 27.2992 14.9 27.0992 16.2 27.0992C17.5 27.0992 18.1 27.3992 18.8 27.5992C19.5 27.8992 20.3 28.2992 21.9 28.2992C23.5 28.2992 24.3 27.9992 25 27.5992C25.7 27.2992 26.3 27.0992 27.6 27.0992C28.9 27.0992 29.5 27.3992 30.2 27.5992C30.9 27.8992 31.7 28.2992 33.3 28.2992C33.7 28.2992 34 28.2992 34.3 28.1992C31.8 32.8992 27.1 35.9992 21.6 35.9992Z" fill="white"/>
<path d="M21.5999 2.09961C10.7999 2.09961 1.8999 10.8996 1.8999 21.7996C1.8999 32.5996 10.6999 41.4996 21.5999 41.4996C32.4999 41.4996 41.2999 32.6996 41.2999 21.7996C41.1999 10.8996 32.3999 2.09961 21.5999 2.09961ZM21.5999 40.0996C11.4999 40.0996 3.1999 31.8996 3.1999 21.6996C3.1999 11.5996 11.3999 3.29961 21.5999 3.29961C31.7999 3.29961 39.9999 11.4996 39.9999 21.6996C39.8999 31.8996 31.6999 40.0996 21.5999 40.0996Z" fill="white"/>
<path d="M15.0999 22.2998L20.2999 25.2998C20.6999 25.4998 21.0999 25.5998 21.4999 25.5998C21.8999 25.5998 22.2999 25.4998 22.6999 25.2998L27.8999 22.2998C28.5999 21.8998 29.0999 21.0998 29.0999 20.1998V14.1998C29.0999 13.2998 28.5999 12.4998 27.8999 12.0998L22.6999 9.0998C21.9999 8.6998 20.9999 8.6998 20.2999 9.0998L15.0999 12.0998C14.3999 12.4998 13.8999 13.2998 13.8999 14.1998V20.1998C13.8999 21.0998 14.3999 21.8998 15.0999 22.2998ZM15.1999 14.1998C15.1999 13.7998 15.3999 13.3998 15.7999 13.1998L20.9999 10.1998C21.1999 10.0998 21.3999 10.0998 21.5999 10.0998C21.7999 10.0998 21.9999 10.0998 22.1999 10.1998L27.3999 13.1998C27.6999 13.3998 27.9999 13.7998 27.9999 14.1998V20.1998C27.9999 20.5998 27.7999 20.9998 27.3999 21.1998L22.1999 24.1998C21.8999 24.3998 21.3999 24.3998 21.0999 24.1998L15.8999 21.1998C15.5999 20.9998 15.2999 20.5998 15.2999 20.1998V14.1998H15.1999Z" fill="white"/>
<path d="M18.3999 19H19.6999V20.3C19.6999 20.8 20.0999 21.3 20.6999 21.3H22.3999C22.8999 21.3 23.3999 20.9 23.3999 20.3V19H24.6999C25.1999 19 25.6999 18.6 25.6999 18V16.3C25.6999 15.8 25.2999 15.3 24.6999 15.3H23.3999V14C23.3999 13.5 22.9999 13 22.3999 13H20.6999C20.1999 13 19.6999 13.4 19.6999 14V15.3H18.3999C17.8999 15.3 17.3999 15.7 17.3999 16.3V18C17.4999 18.6 17.8999 19 18.3999 19ZM18.7999 16.7H20.0999C20.5999 16.7 21.0999 16.3 21.0999 15.7V14.4H22.0999V15.7C22.0999 16.2 22.4999 16.7 23.0999 16.7H24.3999V17.7H22.9999C22.4999 17.7 21.9999 18.1 21.9999 18.7V20H20.9999V18.7C20.9999 18.2 20.5999 17.7 19.9999 17.7H18.6999V16.7H18.7999Z" fill="white"/>
<path d="M27.5 28.5996C25.9 28.5996 25.1 28.8996 24.4 29.2996C23.7 29.5996 23.1 29.7996 21.8 29.7996C20.5 29.7996 19.9 29.4996 19.2 29.2996C18.5 28.9996 17.7 28.5996 16.1 28.5996C15.7 28.5996 15.5 28.8996 15.5 29.2996C15.5 29.6996 15.8 29.9996 16.1 29.9996C17.4 29.9996 18 30.2996 18.7 30.4996C19.4 30.7996 20.2 31.1996 21.8 31.1996C23.4 31.1996 24.2 30.8996 24.9 30.4996C25.6 30.1996 26.2 29.9996 27.5 29.9996C27.9 29.9996 28.2 29.6996 28.2 29.2996C28.2 28.8996 27.9 28.5996 27.5 28.5996Z" fill="white"/>
</svg>
