<svg width="43" height="43" viewBox="0 0 43 43" fill="none" xmlns="http://www.w3.org/2000/svg">
<path d="M30.4997 14.0998C29.9997 14.5998 29.6997 15.2998 29.6997 15.9998C29.6997 16.6998 29.9997 17.3998 30.4997 17.8998C30.9997 18.3998 31.6997 18.6998 32.3997 18.6998C33.0997 18.6998 33.7997 18.3998 34.2997 17.8998C34.7997 17.3998 35.0997 16.6998 35.0997 15.9998C35.0997 15.2998 34.7997 14.5998 34.2997 14.0998C33.1997 13.1998 31.4997 13.1998 30.4997 14.0998ZM33.2997 16.8998C32.7997 17.3998 31.8997 17.3998 31.3997 16.8998C31.0997 16.6998 30.9997 16.2998 30.9997 15.9998C30.9997 15.5998 31.0997 15.2998 31.3997 15.0998C31.5997 14.8998 31.9997 14.6998 32.2997 14.6998C32.5997 14.6998 32.9997 14.7998 33.1997 15.0998C33.3997 15.2998 33.5997 15.6998 33.5997 15.9998C33.5997 16.2998 33.4997 16.6998 33.2997 16.8998Z" fill="white"/>
<path d="M36.2999 35.1C35.6999 35.1 35.0999 35.2 34.5999 35.4C34.4999 35.4 34.3999 35.4 34.3999 35.3C33.2999 32.3 30.3999 30.2 27.1999 30L38.9999 18.3C39.9999 17.3 39.9999 15.6 38.9999 14.6L27.2999 3C26.2999 2 24.5999 2 23.5999 3L4.1999 22.5C3.1999 23.5 3.1999 25.2 4.1999 26.2L10.1999 32.2C8.0999 32.7 6.2999 34.2 5.5999 36.3C3.3999 36.3 1.5999 37.9 1.3999 40.1C1.3999 40.4 1.4999 40.7 1.6999 40.9C1.8999 41.1 2.1999 41.3 2.4999 41.3H10.3999C10.3999 41.3 10.3999 41.3 10.4999 41.3H40.7999C41.0999 41.3 41.3999 41.2 41.5999 41C41.7999 40.8 41.8999 40.5 41.8999 40.2C41.4999 37.3 39.1999 35.1 36.2999 35.1ZM38.3999 16.5C38.3999 16.9 38.2999 17.2 37.9999 17.4L25.3999 30.1C22.9999 30.5 20.8999 32 19.5999 34.1C19.5999 34.2 19.4999 34.2 19.3999 34.2C18.4999 33.8 17.4999 33.6 16.4999 33.6C15.5999 33.6 14.6999 33.8 13.8999 34.1L11.9999 32.2L10.5999 30.8L31.9999 9.5L38.0999 15.6C38.2999 15.8 38.3999 16.1 38.3999 16.5ZM7.1999 27.4L28.4999 6.1L30.9999 8.6L9.6999 29.9L7.1999 27.4ZM5.0999 23.4L24.4999 3.9C24.9999 3.4 25.7999 3.4 26.3999 3.9L27.5999 5.1L6.2999 26.5L5.0999 25.3C4.5999 24.7 4.5999 23.9 5.0999 23.4ZM5.5999 37.6C6.1999 37.6 6.5999 37.3 6.7999 36.7C7.4999 34.8 9.2999 33.4 11.2999 33.3L12.5999 34.6C10.7999 35.7 9.5999 37.7 9.3999 39.9H2.6999C2.9999 38.6 4.1999 37.6 5.5999 37.6ZM10.6999 39.9C10.9999 37 13.4999 34.8 16.4999 34.8C17.2999 34.8 18.0999 35 18.8999 35.3C19.5999 35.6 20.3999 35.4 20.6999 34.7C21.8999 32.6 24.1999 31.2 26.6999 31.2C29.5999 31.2 32.1999 33 33.1999 35.7C33.4999 36.4 34.2999 36.8 34.9999 36.6C35.3999 36.5 35.8999 36.4 36.2999 36.4C38.2999 36.4 40.0999 37.9 40.3999 39.9H10.6999Z" fill="white"/>
<path d="M25.1999 34.2002C24.7999 34.2002 24.3999 34.5002 24.3999 35.0002C24.3999 35.5002 24.6999 35.8002 25.1999 35.8002C25.6999 35.8002 25.9999 35.4002 25.9999 35.0002C25.9999 34.6002 25.6999 34.2002 25.1999 34.2002ZM25.1999 35.5002C24.8999 35.5002 24.6999 35.3002 24.6999 35.0002C24.6999 34.7002 24.8999 34.5002 25.1999 34.5002C25.4999 34.5002 25.6999 34.7002 25.6999 35.0002C25.6999 35.3002 25.4999 35.5002 25.1999 35.5002Z" fill="white"/>
<path d="M7.1999 37.9004C6.7999 37.9004 6.3999 38.2004 6.3999 38.7004C6.3999 39.2004 6.6999 39.5004 7.1999 39.5004C7.6999 39.5004 7.9999 39.2004 7.9999 38.7004C7.9999 38.2004 7.5999 37.9004 7.1999 37.9004ZM7.1999 39.2004C6.8999 39.2004 6.6999 39.0004 6.6999 38.7004C6.6999 38.4004 6.8999 38.2004 7.1999 38.2004C7.4999 38.2004 7.6999 38.4004 7.6999 38.7004C7.6999 39.0004 7.4999 39.2004 7.1999 39.2004Z" fill="white"/>
<path d="M29.8 37.4004C29.4 37.4004 29 37.7004 29 38.2004C29 38.7004 29.3 39.0004 29.8 39.0004C30.3 39.0004 30.6 38.7004 30.6 38.2004C30.6 37.7004 30.2 37.4004 29.8 37.4004ZM29.8 38.7004C29.5 38.7004 29.3 38.5004 29.3 38.2004C29.3 37.9004 29.5 37.7004 29.8 37.7004C30.1 37.7004 30.3 37.9004 30.3 38.2004C30.3 38.5004 30.1 38.7004 29.8 38.7004Z" fill="white"/>
<path d="M18.1999 37.0996C17.7999 37.0996 17.3999 37.3996 17.3999 37.8996C17.3999 38.3996 17.6999 38.6996 18.1999 38.6996C18.6999 38.6996 18.9999 38.3996 18.9999 37.8996C18.9999 37.3996 18.5999 37.0996 18.1999 37.0996ZM18.1999 38.3996C17.8999 38.3996 17.6999 38.1996 17.6999 37.8996C17.6999 37.5996 17.8999 37.3996 18.1999 37.3996C18.4999 37.3996 18.6999 37.5996 18.6999 37.8996C18.6999 38.1996 18.4999 38.3996 18.1999 38.3996Z" fill="white"/>
</svg>
