<svg width="43" height="43" viewBox="0 0 43 43" fill="none" xmlns="http://www.w3.org/2000/svg">
<path d="M33.8999 18.0996H33.0999V14.9996V11.9996C33.0999 11.1996 32.4999 10.5996 31.6999 10.5996H28.4999C27.6999 10.5996 27.0999 11.1996 27.0999 11.9996V14.9996V18.0996H25.8999C25.5999 17.4996 25.1999 16.8996 24.6999 16.3996L23.5999 15.2996C22.6999 14.3996 22.1999 13.1996 22.1999 11.8996V9.39961V3.49961C22.1999 2.69961 21.5999 2.09961 20.7999 2.09961H16.2999C15.4999 2.09961 14.8999 2.69961 14.8999 3.49961V9.39961V11.8996C14.8999 13.1996 14.3999 14.3996 13.4999 15.2996L12.3999 16.3996C11.1999 17.4996 10.5999 19.0996 10.5999 20.6996V29.4996H7.99994C7.59994 29.4996 7.19994 29.6996 6.99994 29.9996C6.79994 30.2996 6.49994 30.5996 6.59994 30.9996L7.39994 40.1996C7.49994 40.8996 8.09994 41.4996 8.79994 41.4996H14.2999H25.8999H35.1999C35.9999 41.4996 36.5999 40.8996 36.5999 40.0996V36.1996V24.5996V20.6996C36.5999 19.2996 35.3999 18.0996 33.8999 18.0996ZM28.3999 11.8996C28.3999 11.7996 28.4999 11.7996 28.4999 11.7996H31.6999C31.7999 11.7996 31.7999 11.8996 31.7999 11.8996V14.2996H28.3999V11.8996ZM27.3999 19.3996C27.9999 19.3996 28.3999 18.8996 28.3999 18.3996V15.6996H31.7999V18.3996C31.7999 18.9996 32.2999 19.3996 32.7999 19.3996H33.8999C34.5999 19.3996 35.1999 19.9996 35.1999 20.6996V23.9996H26.4999V20.6996C26.4999 20.2996 26.3999 19.7996 26.2999 19.3996H27.3999ZM35.2999 35.3996H26.5999V25.2996H35.2999V35.3996ZM8.19994 34.3996H14.8999L14.5999 37.4996H8.39994L8.19994 34.3996ZM16.0999 35.6996H25.2999V40.0996H15.6999L16.0999 35.6996ZM16.0999 7.29961H20.7999V8.69961H16.0999V7.29961ZM16.1999 3.29961H20.6999C20.7999 3.29961 20.7999 3.39961 20.7999 3.39961V5.99961H16.0999V3.49961C16.0999 3.39961 16.1999 3.29961 16.1999 3.29961ZM13.0999 17.2996L14.1999 16.1996C15.3999 15.0996 15.9999 13.4996 15.9999 11.8996V9.99961H20.6999V11.8996C20.6999 13.4996 21.3999 15.0996 22.4999 16.1996L23.5999 17.2996C24.4999 18.1996 24.9999 19.3996 24.9999 20.6996V20.7996H11.6999V20.6996C11.6999 19.3996 12.1999 18.1996 13.0999 17.2996ZM11.6999 22.0996H25.1999V34.4996H16.0999L16.3999 30.9996C16.3999 30.5996 16.2999 30.1996 15.9999 29.8996C15.6999 29.5996 15.3999 29.3996 14.9999 29.3996H11.6999V22.0996ZM7.99994 30.6996H15.0999L15.1999 30.7996L14.9999 33.0996H8.09994L7.89994 30.8996L7.29994 30.9996L7.99994 30.6996ZM14.1999 40.0996H8.79994C8.69994 40.0996 8.69994 40.0996 8.69994 39.9996L8.59994 38.6996H14.4999L14.3999 39.9996C14.3999 40.0996 14.2999 40.0996 14.1999 40.0996ZM35.1999 40.0996H26.5999V36.6996H35.2999V39.9996C35.2999 40.0996 35.1999 40.0996 35.1999 40.0996Z" fill="white"/>
<path d="M30.4001 32.2992C31.9001 32.2992 33.2001 31.0992 33.2001 29.4992C33.2001 27.9992 32.0001 26.6992 30.4001 26.6992C28.9001 26.6992 27.6001 27.8992 27.6001 29.4992C27.6001 30.9992 28.9001 32.2992 30.4001 32.2992ZM30.4001 27.9992C31.2001 27.9992 31.9001 28.6992 31.9001 29.4992C31.9001 30.2992 31.2001 30.9992 30.4001 30.9992C29.6001 30.9992 28.9001 30.2992 28.9001 29.4992C28.9001 28.6992 29.6001 27.9992 30.4001 27.9992Z" fill="white"/>
<path d="M32.4001 33H28.3001C27.9001 33 27.6001 33.3 27.6001 33.7C27.6001 34.1 27.9001 34.4 28.3001 34.4H32.4001C32.8001 34.4 33.1001 34.1 33.1001 33.7C33.1001 33.3 32.8001 33 32.4001 33Z" fill="white"/>
<path d="M21.5 28.6C22.3 28.6 22.9 28 22.9 27.2V25.4C22.9 24.6 22.3 24 21.5 24H15.4C14.6 24 14 24.6 14 25.4V27.2C14 28 14.6 28.6 15.4 28.6H21.5ZM15.3 27.2V25.4C15.3 25.3 15.4 25.3 15.4 25.3H21.5C21.6 25.3 21.6 25.4 21.6 25.4V27.2C21.6 27.3 21.5 27.3 21.5 27.3H15.4L15.3 27.2Z" fill="white"/>
</svg>
