<svg width="43" height="43" viewBox="0 0 43 43" fill="none" xmlns="http://www.w3.org/2000/svg">
<path d="M20.3 28.6005C22.1 27.5005 23.3 25.6005 23.3 23.3005C23.3 22.7005 23.2 22.1005 23 21.6005C22.9 21.3005 22.7 21.1005 22.4 21.1005H12.2L3.29999 16.0005C3.19999 16.0005 2.99999 15.9005 2.79999 16.0005C2.59999 16.1005 2.49999 16.2005 2.39999 16.4005C1.79999 19.0005 2.99999 21.7005 5.29999 23.1005C6.19999 23.6005 7.29999 23.9005 8.29999 23.9005C9.29999 23.9005 10.3 23.6005 11.2 23.2005C11.2 23.3005 11.2 23.3005 11.2 23.4005C11.2 25.6005 12.4 27.6005 14.2 28.7005C10.2 30.0005 7.29999 33.7005 7.29999 38.2005V40.5005C7.29999 40.9005 7.59999 41.2005 7.89999 41.2005H26.5C26.9 41.2005 27.2 40.9005 27.2 40.5005V38.2005C27.2 33.7005 24.3 29.9005 20.3 28.6005ZM5.89999 22.0005C4.29999 21.1005 3.39999 19.4005 3.49999 17.6005L10.8 21.8005C9.39999 22.8005 7.49999 22.9005 5.89999 22.0005ZM12.5 23.4005C12.5 23.1005 12.5 22.8005 12.6 22.5005H22C22.1 22.8005 22.1 23.1005 22.1 23.4005C22.1 26.0005 20 28.2005 17.3 28.2005C14.6 28.2005 12.5 26.0005 12.5 23.4005ZM25.9 39.8005H8.59999V38.1005C8.59999 33.3005 12.5 29.4005 17.3 29.4005C22.1 29.4005 26 33.3005 26 38.1005V39.8005H25.9Z" fill="white"/>
<path d="M7.9001 12.8002C8.0001 13.0002 8.2001 13.0002 8.3001 13.0002C8.4001 13.0002 8.6001 12.9002 8.8001 12.8002L13.5001 8.1002C14.1001 7.5002 14.5001 6.6002 14.5001 5.7002C14.5001 4.8002 14.1001 4.0002 13.5001 3.3002C12.2001 2.0002 10.1001 2.0002 8.7001 3.3002L8.3001 3.8002L8.0001 3.4002C6.7001 2.1002 4.6001 2.1002 3.2001 3.4002C1.9001 4.7002 1.9001 6.8002 3.2001 8.2002L7.9001 12.8002ZM4.1001 4.3002C4.5001 3.9002 5.0001 3.7002 5.6001 3.7002C6.1001 3.7002 6.7001 3.9002 7.1001 4.3002L7.9001 5.1002C8.2001 5.4002 8.6001 5.4002 8.8001 5.1002L9.6001 4.3002C10.4001 3.5002 11.7001 3.5002 12.5001 4.3002C13.3001 5.1002 13.3001 6.4002 12.5001 7.2002L8.3001 11.4002L4.1001 7.2002C3.3001 6.4002 3.3001 5.1002 4.1001 4.3002Z" fill="white"/>
<path d="M37.9003 16.4H35.4003V13.2C35.4003 11.6 34.4003 10.3 33.1003 9.7V3.1C33.1003 2.7 32.8003 2.5 32.4003 2.5H18.4003C18.0003 2.5 17.8003 2.8 17.8003 3.1V17.1C17.8003 17.4 18.0003 17.6 18.2003 17.7C18.3003 17.7 18.4003 17.7 18.4003 17.7C18.6003 17.7 18.7003 17.6 18.9003 17.5L22.6003 13.8H29.4003V13.9C29.4003 15.3 28.3003 16.4 26.9003 16.4C26.5003 16.4 26.2003 16.7 26.2003 17V27.1C26.2003 27.5 26.5003 27.8 26.9003 27.8H37.8003C39.4003 27.8 40.8003 26.5 40.8003 24.8V19.4C40.9003 17.7 39.6003 16.4 37.9003 16.4ZM22.4003 12.5C22.2003 12.5 22.1003 12.6 21.9003 12.7L19.1003 15.5V3.7H31.8003V9.4H31.7003C30.5003 9.4 29.5003 10.4 29.5003 11.6V12.5H22.4003ZM39.6003 24.8C39.6003 25.7 38.8003 26.5 37.9003 26.5H27.7003V17.7C29.5003 17.4 30.8003 15.9 30.8003 14V11.7C30.8003 11.2 31.2003 10.8 31.7003 10.8C33.1003 10.8 34.2003 11.9 34.2003 13.3V17C34.2003 17.4 34.5003 17.6 34.9003 17.6H38.0003C38.9003 17.6 39.7003 18.4 39.7003 19.3V24.8H39.6003Z" fill="white"/>
</svg>
