<svg width="57" height="43" viewBox="0 0 57 43" fill="none" xmlns="http://www.w3.org/2000/svg">
<path d="M32.1 16.9C31.8 16.7 31.4 16.8 31.2 17.1L27.6 23L25.6 20C25.4 19.7 25 19.5999 24.7 19.7999C24.4 19.9999 24.3 20.4 24.5 20.7L27 24.5C27 24.6 27.1 24.6 27.2 24.7C27.3 24.8 27.4 24.7999 27.5 24.7999C27.6 24.7999 27.7 24.8 27.8 24.7C27.9 24.6 27.9 24.6 28 24.5L32.2 17.7999C32.5 17.4999 32.4 17.1 32.1 16.9Z" fill="white"/>
<path d="M16.0998 12.7992C16.4998 12.7992 16.8998 12.4992 16.8998 11.9992C16.8998 11.4992 16.5998 11.1992 16.0998 11.1992C15.5998 11.1992 15.2998 11.4992 15.2998 11.9992C15.2998 12.4992 15.6998 12.7992 16.0998 12.7992ZM16.0998 11.4992C16.3998 11.4992 16.5998 11.6992 16.5998 11.9992C16.5998 12.2992 16.3998 12.4992 16.0998 12.4992C15.7998 12.4992 15.5998 12.2992 15.5998 11.9992C15.5998 11.6992 15.8998 11.4992 16.0998 11.4992Z" fill="white"/>
<path d="M18.5002 12.7992C18.9002 12.7992 19.3002 12.4992 19.3002 11.9992C19.3002 11.4992 19.0002 11.1992 18.5002 11.1992C18.0002 11.1992 17.7002 11.4992 17.7002 11.9992C17.7002 12.4992 18.1002 12.7992 18.5002 12.7992ZM18.5002 11.4992C18.8002 11.4992 19.0002 11.6992 19.0002 11.9992C19.0002 12.2992 18.8002 12.4992 18.5002 12.4992C18.2002 12.4992 18.0002 12.3992 18.0002 12.0992C18.0002 11.7992 18.2002 11.4992 18.5002 11.4992Z" fill="white"/>
<path d="M20.9001 12.7992C21.3001 12.7992 21.7001 12.4992 21.7001 11.9992C21.7001 11.4992 21.4001 11.1992 20.9001 11.1992C20.4001 11.1992 20.1001 11.4992 20.1001 11.9992C20.1001 12.4992 20.5001 12.7992 20.9001 12.7992ZM20.9001 11.4992C21.2001 11.4992 21.4001 11.6992 21.4001 11.9992C21.4001 12.2992 21.2001 12.4992 20.9001 12.4992C20.6001 12.4992 20.4001 12.2992 20.4001 11.9992C20.4001 11.6992 20.6001 11.4992 20.9001 11.4992Z" fill="white"/>
<path d="M48.7 31.2996H47.7V7.49961C47.7 6.39961 46.8 5.59961 45.8 5.59961H11.4C10.3 5.59961 9.5 6.49961 9.5 7.49961V31.2996H8.5C7.7 31.2996 7 31.9996 7 32.7996V35.0996C7 36.5996 8.2 37.8996 9.8 37.8996H47.5C49 37.8996 50.3 36.6996 50.3 35.0996V32.7996C50.2 31.9996 49.5 31.2996 48.7 31.2996ZM10.8 7.49961C10.8 7.19961 11.1 6.89961 11.4 6.89961H45.7C46 6.89961 46.3 7.19961 46.3 7.49961V31.2996H10.8V7.49961ZM24.3 32.5996H32.9V33.6996C32.9 33.7996 32.8 33.8996 32.7 33.8996H24.4C24.3 33.8996 24.2 33.7996 24.2 33.6996V32.5996H24.3ZM48.9 35.0996C48.9 35.8996 48.2 36.5996 47.4 36.5996H9.7C8.9 36.5996 8.2 35.8996 8.2 35.0996V32.7996C8.2 32.6996 8.3 32.5996 8.4 32.5996H23V33.6996C23 34.4996 23.7 35.1996 24.5 35.1996H32.8C33.6 35.1996 34.3 34.4996 34.3 33.6996V32.5996H48.8C48.9 32.5996 49 32.6996 49 32.7996V35.0996H48.9Z" fill="white"/>
<path d="M44.1 27.2994V10.8994C44.1 10.0994 43.4 9.39941 42.6 9.39941H14.5C13.7 9.39941 13 10.0994 13 10.8994V27.2994C13 28.0994 13.7 28.7994 14.5 28.7994H42.6C43.4 28.7994 44.1 28.0994 44.1 27.2994ZM14.5 10.6994H42.6C42.7 10.6994 42.8 10.7994 42.8 10.8994V13.5994H14.3V10.8994C14.3 10.7994 14.4 10.6994 14.5 10.6994ZM14.3 27.2994V14.8994H42.8V27.2994C42.8 27.3994 42.7 27.4994 42.6 27.4994H14.5C14.4 27.4994 14.3 27.3994 14.3 27.2994Z" fill="white"/>
</svg>
