<svg width="57" height="43" viewBox="0 0 57 43" fill="none" xmlns="http://www.w3.org/2000/svg">
<path d="M50.1998 33.8998H45.8998V28.8998C47.8998 28.7998 49.5998 27.0998 49.5998 24.9998C49.5998 22.8998 47.8998 21.0998 45.6998 21.0998H44.1998L45.8998 19.3998C47.1998 18.0998 47.1998 15.9998 45.8998 14.6998C44.5998 13.3998 42.3998 13.3998 41.1998 14.6998L39.8998 15.9998H30.9998C30.7998 15.4998 30.5998 15.0998 30.1998 14.6998C28.8998 13.3998 26.7998 13.3998 25.4998 14.6998L23.9998 16.1998L23.2998 15.4998C22.4998 14.6998 21.4998 14.3998 20.3998 14.3998C20.8998 12.9998 20.6998 11.3998 19.4998 10.1998L18.5998 9.2998C17.0998 7.7998 14.5998 7.7998 13.0998 9.2998C12.0998 10.2998 11.7998 11.5998 11.9998 12.7998C10.9998 12.6998 9.5998 13.0998 8.6998 13.9998C7.1998 15.4998 7.1998 17.9998 8.6998 19.4998L17.7998 28.5998V33.8998H6.8998C6.4998 33.8998 6.2998 34.1998 6.2998 34.5998C6.2998 34.9998 6.5998 35.2998 6.8998 35.2998H50.1998C50.5998 35.2998 50.8998 34.9998 50.8998 34.5998C50.8998 34.1998 50.5998 33.8998 50.1998 33.8998ZM39.4998 28.9998V33.8998H24.1998V28.9998H39.4998ZM40.7998 28.9998H44.6998V33.8998H40.7998V28.9998ZM31.1998 17.3998H40.0998C40.2998 17.3998 40.3998 17.2998 40.5998 17.1998L42.0998 15.6998C42.8998 14.8998 44.1998 14.8998 44.9998 15.6998C45.3998 16.0998 45.5998 16.5998 45.5998 17.0998C45.5998 17.5998 45.3998 18.1998 44.9998 18.4998L42.3998 21.0998H28.4998L30.1998 19.3998C30.7998 18.8998 31.0998 18.1998 31.1998 17.3998ZM22.3998 16.4998L23.4998 17.5998C23.7998 17.8998 24.1998 17.8998 24.3998 17.5998L26.2998 15.6998C27.0998 14.8998 28.3998 14.8998 29.1998 15.6998C29.5998 16.0998 29.7998 16.5998 29.7998 17.0998C29.7998 17.5998 29.5998 18.1998 29.1998 18.4998L26.5998 21.0998H21.1998L17.5998 17.4998L18.6998 16.3998C19.8998 15.4998 21.4998 15.4998 22.3998 16.4998ZM14.1998 10.3998C14.6998 9.8998 15.3998 9.5998 15.9998 9.5998C16.5998 9.5998 17.2998 9.8998 17.7998 10.3998L18.6998 11.2998C19.6998 12.2998 19.6998 13.8998 18.6998 14.8998C17.6998 15.8998 16.0998 15.8998 15.0998 14.8998L14.1998 13.9998C13.1998 12.9998 13.1998 11.3998 14.1998 10.3998ZM9.5998 14.8998C10.5998 13.8998 12.1998 13.8998 13.1998 14.8998L14.0998 15.7998L16.3998 18.0998L20.5998 22.2998C20.6998 22.3998 20.6998 22.3998 20.7998 22.3998C20.8998 22.3998 20.9998 22.3998 20.9998 22.3998H42.3998H42.4998H42.5998H45.4998C46.8998 22.3998 48.0998 23.5998 48.0998 24.9998C48.0998 26.3998 46.8998 27.5998 45.4998 27.5998H18.4998L9.3998 18.4998C8.5998 17.5998 8.5998 15.8998 9.5998 14.8998ZM19.0998 28.9998H22.9998V33.8998H19.0998V28.9998Z" fill="white"/>
</svg>
