<svg width="43" height="43" viewBox="0 0 43 43" fill="none" xmlns="http://www.w3.org/2000/svg">
<path d="M19.3001 12.9996C19.4001 13.0996 19.6001 13.1996 19.8001 13.1996C20.0001 13.1996 20.1001 13.0996 20.3001 12.9996L25.2001 8.09961C25.5001 7.79961 25.5001 7.39961 25.2001 7.19961C24.9001 6.89961 24.5001 6.89961 24.3001 7.19961L19.8001 11.6996L18.6001 10.4996C18.3001 10.1996 17.9001 10.1996 17.7001 10.4996C17.4001 10.7996 17.4001 11.1996 17.7001 11.3996L19.3001 12.9996Z" fill="white"/>
<path d="M37.2002 32.1C38.2002 31.3 38.9002 30.1 38.9002 28.8C38.9002 26.5 37.0002 24.7 34.8002 24.7C32.6002 24.7 30.7002 26.6 30.7002 28.8C30.7002 30.2 31.4002 31.4 32.4002 32.1C31.0002 32.7 29.8002 33.8 29.1002 35.1C28.3002 33 26.5002 31.3 24.4002 30.5C25.7002 29.6 26.6002 28.1 26.6002 26.4C26.6002 23.7 24.4002 21.5 21.7002 21.5C19.0002 21.5 16.8002 23.7 16.8002 26.4C16.8002 28.1 17.7002 29.6 19.0002 30.5C16.8002 31.3 15.1002 33 14.3002 35.1C13.6002 33.7 12.4002 32.7 11.0002 32.1C12.0002 31.3 12.7002 30.1 12.7002 28.8C12.7002 26.5 10.8002 24.7 8.6002 24.7C6.3002 24.7 4.5002 26.6 4.5002 28.8C4.5002 30.2 5.2002 31.4 6.2002 32.1C3.80019 33.1 2.2002 35.4 2.2002 38.1V40.8C2.2002 41.2 2.5002 41.5 2.8002 41.5H14.4002H29.1002H40.7002C41.1002 41.5 41.4002 41.2 41.4002 40.8V38C41.2002 35.3 39.6002 33 37.2002 32.1ZM31.9002 28.7C31.9002 27.1 33.2002 25.9 34.7002 25.9C36.2002 25.9 37.5002 27.2 37.5002 28.7C37.5002 30.2 36.2002 31.5 34.7002 31.5C33.2002 31.5 31.9002 30.3 31.9002 28.7ZM18.0002 26.4C18.0002 24.4 19.6002 22.8 21.6002 22.8C23.6002 22.8 25.2002 24.4 25.2002 26.4C25.2002 28.4 23.6002 30 21.6002 30C19.6002 30 18.0002 28.4 18.0002 26.4ZM5.5002 28.7C5.5002 27.1 6.8002 25.9 8.3002 25.9C9.9002 25.9 11.1002 27.2 11.1002 28.7C11.1002 30.2 9.8002 31.5 8.3002 31.5C6.8002 31.6 5.5002 30.3 5.5002 28.7ZM3.2002 38C3.2002 35.1 5.5002 32.8 8.4002 32.8C11.3002 32.8 13.6002 35.1 13.6002 38V40.1H3.2002V38ZM14.8002 38C14.8002 34.3 17.8002 31.3 21.5002 31.3C25.2002 31.3 28.2002 34.3 28.2002 38V40.1H14.8002V38ZM39.9002 40.1H29.6002V38C29.6002 35.1 31.9002 32.8 34.8002 32.8C37.7002 32.8 40.0002 35.1 40.0002 38V40.1H39.9002Z" fill="white"/>
<path d="M21.6001 18.0996C26.0001 18.0996 29.6001 14.4996 29.6001 10.0996C29.6001 5.69961 26.0001 2.09961 21.6001 2.09961C17.2001 2.09961 13.6001 5.69961 13.6001 10.0996C13.6001 14.4996 17.1001 18.0996 21.6001 18.0996ZM21.6001 3.39961C25.3001 3.39961 28.3001 6.39961 28.3001 10.0996C28.3001 13.7996 25.3001 16.7996 21.6001 16.7996C17.9001 16.7996 14.9001 13.7996 14.9001 10.0996C14.9001 6.39961 17.9001 3.39961 21.6001 3.39961Z" fill="white"/>
</svg>
