<svg width="43" height="43" viewBox="0 0 43 43" fill="none" xmlns="http://www.w3.org/2000/svg">
<path d="M40.9002 32.7998L37.1002 28.9998C36.9002 26.9998 36.3002 25.1998 35.4002 23.4998C33.6002 19.9998 30.8002 18.2998 30.7002 18.2998C29.8002 17.6998 28.9002 17.1998 27.9002 16.8998L23.0002 10.1998C22.9002 10.0998 22.8002 9.8998 22.7002 9.7998C22.1002 8.9998 21.7002 8.3998 20.5002 7.9998L14.7002 6.2998C14.6002 6.2998 14.5002 6.2998 14.4002 6.1998L10.6002 2.3998C10.3002 2.0998 9.9002 2.0998 9.7002 2.3998L2.3002 9.7998C2.0002 10.0998 2.0002 10.4998 2.3002 10.6998L6.0002 14.3998H5.9002C4.7002 14.7998 3.9002 16.0998 4.3002 17.2998C4.6002 18.2998 5.5002 18.8998 6.4002 18.9998C6.3002 19.3998 6.3002 19.7998 6.4002 20.2998C6.6002 20.8998 7.0002 21.3998 7.5002 21.6998C8.0002 21.8998 8.3002 21.9998 8.7002 21.9998C8.6002 22.3998 8.6002 22.7998 8.7002 23.2998C9.0002 24.2998 9.9002 24.8998 10.8002 24.9998C10.7002 25.3998 10.7002 25.7998 10.8002 26.2998C11.0002 26.8998 11.4002 27.3998 11.9002 27.6998C12.3002 27.8998 12.6002 27.9998 13.0002 27.9998C13.2002 27.9998 13.5002 27.9998 13.7002 27.8998L16.2002 27.1998C16.4002 27.8998 16.4002 28.4998 16.4002 29.1998L16.2002 32.6998C16.2002 33.2998 16.4002 33.8998 16.8002 34.3998C17.2002 34.8998 17.8002 35.0998 18.4002 35.1998H18.5002C18.9002 35.1998 19.3002 35.0998 19.6002 34.8998C19.7002 35.1998 19.9002 35.4998 20.1002 35.7998C20.5002 36.2998 21.1002 36.4998 21.7002 36.5998H21.8002C22.2002 36.5998 22.6002 36.4998 22.9002 36.2998C23.0002 36.5998 23.2002 36.8998 23.4002 37.1998C23.8002 37.6998 24.4002 37.8998 25.0002 37.9998H25.1002C25.5002 37.9998 25.9002 37.8998 26.2002 37.6998C26.5002 38.5998 27.3002 39.2998 28.3002 39.3998H28.4002C28.9002 39.3998 29.4002 39.1998 29.8002 38.9998L32.2002 41.3998C32.3002 41.4998 32.5002 41.5998 32.7002 41.5998C32.9002 41.5998 33.0002 41.4998 33.2002 41.3998L40.6002 33.9998C40.7002 33.8998 40.8002 33.6998 40.8002 33.4998C41.0002 32.9998 41.0002 32.8998 40.9002 32.7998ZM21.6002 10.4998C21.7002 10.5998 21.8002 10.7998 21.9002 10.8998L25.9002 16.2998C25.5002 16.1998 25.2002 16.1998 24.8002 16.1998C23.7002 16.1998 23.1002 15.7998 22.3002 14.9998L20.2002 12.8998C19.4002 12.0998 19.2002 11.9998 17.9002 11.4998L13.5002 10.1998C12.8002 9.9998 12.3002 9.1998 12.6002 8.4998C12.7002 8.0998 12.9002 7.8998 13.3002 7.6998C13.7002 7.4998 14.0002 7.4998 14.4002 7.5998L20.2002 9.2998C20.9002 9.4998 21.1002 9.7998 21.6002 10.4998ZM5.6002 16.9998C5.4002 16.3998 5.7002 15.7998 6.3002 15.6998L9.6002 14.6998C9.7002 14.6998 9.8002 14.6998 9.9002 14.6998C10.4002 14.6998 10.8002 14.9998 10.9002 15.4998C11.1002 16.0998 10.8002 16.6998 10.2002 16.7998L6.9002 17.7998C6.4002 17.8998 5.8002 17.5998 5.6002 16.9998ZM7.8002 19.9998C7.7002 19.6998 7.7002 19.3998 7.9002 19.1998C8.0002 18.8998 8.3002 18.7998 8.5002 18.6998L10.6002 18.0998L11.8002 17.6998C12.4002 17.4998 13.0002 17.8998 13.1002 18.3998C13.2002 18.6998 13.2002 18.9998 13.0002 19.1998C12.8002 19.3998 12.6002 19.5998 12.4002 19.6998L10.2002 20.2998L9.0002 20.6998C8.7002 20.7998 8.4002 20.7998 8.2002 20.5998C8.0002 20.3998 7.9002 20.1998 7.8002 19.9998ZM9.9002 22.8998C9.8002 22.5998 9.8002 22.2998 10.0002 22.0998C10.1002 21.7998 10.4002 21.6998 10.6002 21.5998L12.7002 20.9998L13.9002 20.5998C14.0002 20.5998 14.1002 20.5998 14.2002 20.5998C14.4002 20.5998 14.5002 20.5998 14.7002 20.6998C15.0002 20.7998 15.1002 21.0998 15.2002 21.2998C15.3002 21.5998 15.3002 21.8998 15.1002 22.0998C15.0002 22.3998 14.7002 22.4998 14.5002 22.5998L11.2002 23.5998C10.7002 23.7998 10.1002 23.3998 9.9002 22.8998ZM13.4002 26.4998C13.1002 26.5998 12.8002 26.5998 12.6002 26.3998C12.3002 26.2998 12.2002 25.9998 12.1002 25.7998C12.0002 25.4998 12.0002 25.1998 12.2002 24.9998C12.3002 24.6998 12.6002 24.5998 12.8002 24.4998L14.9002 23.8998L16.1002 23.4998C16.7002 23.2998 17.3002 23.6998 17.4002 24.1998C17.5002 24.4998 17.5002 24.7998 17.3002 24.9998C17.2002 25.2998 16.9002 25.3998 16.7002 25.4998L13.4002 26.4998ZM28.8002 37.7998C28.2002 37.7998 27.7002 37.2998 27.7002 36.6998L27.8002 35.4998L27.9002 33.2998C27.9002 32.8998 27.6002 32.5998 27.3002 32.5998C26.9002 32.5998 26.6002 32.8998 26.6002 33.1998L26.5002 35.3998C26.5002 35.9998 26.0002 36.4998 25.4002 36.3998C25.1002 36.3998 24.9002 36.2998 24.7002 36.0998C24.5002 35.8998 24.4002 35.5998 24.4002 35.2998L24.5002 34.0998L24.6002 31.8998C24.6002 31.4998 24.3002 31.1998 24.0002 31.1998C23.6002 31.1998 23.3002 31.4998 23.3002 31.7998L23.1002 33.9998C23.1002 34.2998 23.0002 34.4998 22.8002 34.6998C22.6002 34.8998 22.3002 34.9998 22.0002 34.9998C21.7002 34.9998 21.5002 34.8998 21.3002 34.6998C21.1002 34.4998 21.0002 34.1998 21.0002 33.8998L21.1002 32.6998L21.2002 30.4998C21.2002 30.0998 20.9002 29.7998 20.6002 29.7998C20.3002 29.7998 19.9002 30.0998 19.9002 30.3998L19.8002 32.5998C19.8002 33.1998 19.3002 33.6998 18.7002 33.5998C18.4002 33.5998 18.2002 33.4998 18.0002 33.2998C17.8002 33.0998 17.7002 32.7998 17.7002 32.4998L17.9002 28.9998C17.9002 28.1998 17.8002 27.3998 17.6002 26.5998C18.0002 26.3998 18.4002 25.9998 18.6002 25.5998C18.9002 24.9998 19.0002 24.3998 18.8002 23.7998C18.5002 22.7998 17.6002 22.1998 16.7002 22.0998C16.8002 21.6998 16.8002 21.2998 16.7002 20.7998C16.5002 20.1998 16.1002 19.6998 15.6002 19.3998C15.3002 19.1998 14.9002 19.0998 14.6002 19.0998C14.7002 18.6998 14.7002 18.2998 14.6002 17.7998C14.3002 16.7998 13.4002 16.1998 12.5002 16.0998C12.6002 15.6998 12.6002 15.2998 12.5002 14.7998C12.1002 13.5998 10.8002 12.7998 9.6002 13.1998L7.4002 13.9998L3.7002 10.2998L10.1002 3.8998L12.7002 6.4998H12.6002C12.0002 6.7998 11.5002 7.3998 11.3002 8.0998C10.9002 9.4998 11.7002 10.9998 13.1002 11.3998L17.5002 12.6998C18.6002 12.9998 18.6002 12.9998 19.3002 13.6998L21.4002 15.7998C22.2002 16.5998 23.1002 17.3998 24.8002 17.3998C26.4002 17.3998 28.2002 18.0998 30.0002 19.1998C30.0002 19.1998 32.6002 20.7998 34.3002 23.8998C34.9002 25.0998 35.4002 26.2998 35.7002 27.5998C33.1002 25.6998 32.0002 25.0998 31.2002 25.4998C30.4002 25.8998 30.3002 26.7998 30.3002 27.9998L30.1002 32.9998L29.9002 36.4998C29.8002 37.2998 29.4002 37.7998 28.8002 37.7998ZM33.0002 39.6998L31.0002 37.5998C31.1002 37.3998 31.2002 37.0998 31.2002 36.7998L31.5002 28.2998C31.5002 27.2998 31.6002 26.9998 31.6002 26.9998C32.1002 26.8998 35.0002 28.9998 36.1002 29.8998L39.5002 33.2998L33.0002 39.6998Z" fill="white"/>
</svg>
