<svg width="128" height="128" viewBox="0 0 128 128" fill="none" xmlns="http://www.w3.org/2000/svg">
<path d="M107.335 99.5579C104.867 98.0774 102.646 97.5839 99.9323 97.5839C93.5168 97.8306 88.0884 103.259 88.0884 109.921C88.0884 111.895 88.0884 111.895 86.1144 112.389C72.2965 114.116 57.7383 107.454 50.8294 94.6229C47.8684 88.9477 46.3879 82.779 46.8814 76.3636C46.8814 76.1168 46.8814 75.8701 47.1282 75.3766C47.6217 75.8701 47.8684 76.3636 47.8684 76.6103C51.8164 83.5193 57.4916 88.4542 65.3875 90.675C74.2705 92.8957 82.6599 91.4152 90.3091 86.2335C99.192 80.0648 104.374 71.4286 105.854 61.0652C108.322 44.2863 103.387 29.9749 91.0493 18.3778C90.8026 18.131 90.5558 17.8843 90.0623 17.6375C90.0623 17.6375 90.0623 17.6375 90.0623 17.3908C90.5558 16.8973 91.0493 16.8973 91.2961 17.144C106.348 25.7802 116.711 38.1176 119.919 55.39C123.127 71.4286 119.179 85.9867 108.322 98.3241C107.828 98.8176 107.581 99.0644 107.335 99.5579Z" fill="#83B2A6"/>
<path d="M81.9197 20.8453C93.7636 27.7543 100.673 37.8709 101.413 51.6888C102.153 63.0392 97.4648 72.4157 88.5819 79.3246C89.0754 77.5974 89.5689 75.8701 90.0624 73.8962C91.5429 64.7665 89.5689 56.6238 83.1534 49.7148C75.9977 41.8189 66.8681 38.1177 56.2579 38.3644C41.6998 38.6112 30.3493 45.0266 21.2197 56.1303C17.0249 61.312 13.8172 66.9872 12.3367 73.4027C12.3367 73.6494 12.09 73.6494 12.09 73.8962C12.09 73.8962 11.8432 73.8962 11.5965 74.1429C11.5965 73.6494 11.3497 73.1559 11.3497 72.9092C11.3497 54.1563 18.2587 38.8579 33.3103 27.2608C40.466 21.8323 48.6087 18.3778 57.7384 17.1441C58.7254 16.8973 59.4656 17.1441 59.9591 18.3778C62.9201 27.2608 75.2575 29.4815 81.1795 21.8323C81.1795 21.5856 81.4262 21.3388 81.9197 20.8453Z" fill="#8FAE75"/>
<path d="M90.0623 121.025C86.6078 121.765 83.4001 122.752 79.9456 123.246C72.2964 124.479 64.6472 124.233 57.2448 122.259C45.1541 119.051 35.0374 112.635 27.1415 102.765C26.1545 101.285 25.1675 99.8045 24.1805 98.324C23.687 97.5837 23.687 97.0902 24.4273 96.5967C29.8557 91.6618 30.3492 83.5191 25.4143 78.3374C24.1805 77.1036 22.2065 76.1166 20.4793 75.1296C19.7391 74.6362 19.4923 74.6362 19.4923 73.6492C22.7 59.5845 30.596 49.7146 44.6606 45.2731C50.8293 43.2991 56.998 43.2991 63.4135 45.0264C63.907 45.0264 64.1537 45.2731 64.4005 45.5199C61.1927 47.0004 57.985 48.2341 55.2708 49.9613C46.8814 55.1431 42.1931 63.039 40.9594 72.6622C39.2322 87.2203 44.6606 99.0642 55.5175 108.441C64.894 116.583 75.9976 120.285 88.335 120.038C88.8285 120.038 89.0753 120.038 89.5688 120.038C89.5688 120.038 89.8155 120.038 89.8155 120.285C90.0623 120.778 90.0623 121.025 90.0623 121.025Z" fill="#A8B398"/>
<path d="M61.4396 13.6896C61.1929 8.26117 66.1278 3.8197 71.5563 4.06645C76.738 4.3132 81.1795 8.50791 81.1795 13.6896C81.1795 19.6116 76.738 24.053 71.0628 24.053C65.8811 23.8063 61.4396 19.3648 61.4396 13.6896Z" fill="#8FAE75"/>
<path d="M110.543 110.415C110.789 115.35 106.101 120.285 100.426 120.285C94.7506 120.285 90.5559 115.597 90.5559 109.675C90.5559 104.74 95.4909 100.545 101.166 100.545C106.348 100.545 110.543 104.987 110.543 110.415Z" fill="#83B2A6"/>
<path d="M16.5315 77.3511C21.9599 77.3511 26.4014 81.7925 26.4014 87.221C26.4014 92.6495 22.2067 97.0909 16.5315 97.0909C11.103 97.0909 6.66156 92.6495 6.66156 87.221C6.66156 81.7925 11.103 77.3511 16.5315 77.3511Z" fill="#A8B398"/>
</svg>
