<svg width="128" height="128" viewBox="0 0 128 128" fill="none" xmlns="http://www.w3.org/2000/svg">
<path d="M47.4445 32.7391C47.4445 32.7391 43.6977 31.0927 41.4127 33.9738C39.1277 36.8549 38.1342 38.3735 37.4246 40.0057C36.715 41.6378 35.6079 39.8921 32.3295 40.5308C29.051 41.1694 28.7529 42.6455 27.873 44.5189C26.9931 46.3923 24.6513 45.3421 24.2397 45.4556C23.8281 45.5691 23.8281 46.7471 26.0564 48.0386C28.2846 49.3302 30.158 47.8683 30.8534 47.1587C31.5489 46.4491 34.3022 46.222 35.4802 46.9884C36.6582 47.7548 38.6168 49.7701 41.3417 48.8618C41.8669 48.6915 41.512 49.5714 40.8166 49.7985C40.1212 50.0256 38.3045 50.3804 37.7084 52.1971C37.1124 54.0137 34.728 58.9953 23.8281 66.0206C23.8281 66.0206 23.6578 66.2619 21.316 65.7226C18.9743 65.1832 17.6828 66.3045 17.1576 66.1341C16.6325 65.9638 17.4557 66.9573 19.0878 66.9005C20.72 66.8438 22.2528 68.0076 23.1895 67.7237C24.1262 67.4399 33.1526 63.1537 38.4181 58.2999C39.1845 57.5902 38.5884 58.3566 38.7161 60.0597C38.8438 61.7628 39.5393 66.6167 40.2347 68.7882C40.9302 70.9596 41.3417 71.1299 38.4181 73.0033C35.4944 74.8768 27.4046 80.6815 24.7081 83.9032C22.0115 87.1249 31.3218 93.0432 32.145 93.5683C32.9681 94.0935 41.1005 99.7137 41.4553 100.537C41.8101 101.36 41.1572 102.297 41.512 104.284C41.8669 106.271 41.6256 107.619 41.3417 107.86C41.0579 108.102 41.583 108.797 42.3352 107.69C43.0874 106.583 43.4422 105.348 43.57 104.355C43.6977 103.361 43.9816 102.24 44.8047 101.545C45.6279 100.849 46.0962 98.9615 44.0951 98.9048C42.0939 98.848 39.4683 90.9427 32.3295 87.423C32.3295 87.423 29.9877 86.6566 31.6198 85.6063C33.252 84.5561 33.6636 84.0877 33.6636 84.0877C33.6636 84.0877 31.265 86.3727 32.6701 89.0125C34.0751 91.6524 46.5504 91.3543 55.6904 92.1775C55.6904 92.1775 56.9252 91.7659 57.7341 93.6393C58.5431 95.5127 59.2527 95.9811 59.6076 96.7475C59.9624 97.5139 60.2462 98.7344 60.1894 99.0325C60.1327 99.3305 61.0126 100.083 61.1829 98.2093C61.3532 96.3359 60.601 94.7605 60.2462 93.9941C59.8914 93.2277 59.5366 91.3543 60.0049 90.5453C60.4733 89.7364 59.7069 88.2603 58.1883 88.899C56.6697 89.5377 54.4982 89.6086 52.8519 89.0693C51.2056 88.53 47.6432 86.8411 40.3199 86.2592C40.3199 86.2592 38.7445 86.5005 41.143 84.4425C43.5416 82.3846 45.5427 79.9293 48.1684 78.9358C50.794 77.9424 52.568 76.1257 51.7449 73.0175C50.9217 69.9094 47.0046 68.5611 47.0046 64.5304C47.0046 60.4997 50.1127 54.1698 56.7832 46.2504C63.4537 38.3309 63.8086 30.965 63.695 29.3187C63.695 29.3187 63.6382 29.4322 63.9931 28.68C64.3479 27.9278 65.0433 27.573 64.9298 27.1614C64.8162 26.7498 63.9931 27.3317 63.6382 27.6297C63.2834 27.9278 62.7015 25.8699 63.2267 24.181C63.7518 22.492 62.517 23.003 61.708 25.0609C60.8991 27.1188 62.0629 28.9213 61.7648 30.6811C61.4668 32.441 59.3663 39.8779 50.1127 47.0735C50.1127 47.0735 47.771 48.3651 47.6574 46.7187C47.5439 45.0724 49.3605 44.4337 50.354 42.8016C51.3475 41.1694 53.5757 33.8461 47.4303 32.7816L47.4445 32.7391Z" fill="#8EBAAE"/>
<path d="M52.2985 108.585C52.5965 107.009 54.6403 103.021 55.6337 100.026C56.6272 97.046 57.4504 93.0579 58.5006 90.0065C59.5509 86.9551 66.4627 72.2658 66.8742 71.1446C67.2858 70.0376 68.2793 70.3782 68.6341 71.4427C68.9889 72.5071 72.4945 81.5194 74.7227 85.323C76.951 89.1266 77.0645 92.2915 77.9444 94.9881C78.8244 97.6847 81.8048 105.76 82.628 107.35C83.2666 108.585 83.1957 110.472 83.1247 111.224C84.9981 111.395 86.829 111.608 88.6172 111.835C88.5037 111.48 88.1631 110.458 87.6096 109.28C86.8999 107.818 87.0277 107.988 86.7296 106.229C86.4316 104.469 85.2678 97.3299 82.8125 91C80.3572 84.6701 80.7688 86.132 79.8888 82.1013C79.0089 78.0564 78.5405 73.9548 76.1988 65.3541C73.857 56.7392 74.4389 57.0372 74.7937 53.8723C75.1485 50.7074 75.2053 43.1002 78.1857 41.8654C81.1661 40.6307 90.1358 36.3587 90.5474 35.72C90.959 35.0814 91.1861 34.8969 90.6042 32.0867C90.0223 29.2766 87.3257 22.7764 86.3322 21.3714C85.3388 19.9663 86.2187 19.2567 85.3388 17.6813C84.4588 16.1059 82.5286 14.346 82.3583 14.4028C82.188 14.4596 81.9467 14.5731 82.3015 15.1692C82.6564 15.7511 84.0614 17.9793 83.295 18.5612C82.5286 19.1431 82.0603 16.7446 81.5352 16.9149C81.01 17.0852 81.8332 19.3134 82.3015 19.725C82.7699 20.1366 84.175 21.1869 84.473 22.1236C84.7711 23.0603 86.2897 32.5551 86.46 32.7822C86.6303 33.0234 85.8781 33.3641 84.2317 34.0169C82.5854 34.6698 77.0929 35.5355 75.5033 35.3652C73.9279 35.1949 70.2379 35.6065 70.3514 33.6053C70.465 31.6042 70.465 30.4404 70.8765 29.745C71.2881 29.0353 72.2248 26.8781 72.0545 23.6564C71.8842 20.4347 72.3242 19.1999 70.323 18.5045C68.3361 17.7948 65.7814 17.7097 65.3131 18.4193C64.8447 19.1289 64.2344 19.7676 63.5532 20.094C62.063 20.8037 62.5739 22.1236 62.4178 23.1738C62.0914 25.3169 62.6165 28.8224 63.7377 29.2908C64.8447 29.7592 65.1428 30.0004 64.9724 31.9874C64.8021 33.9743 64.9157 34.4995 63.8654 34.6272C62.8152 34.7549 61.1688 35.2659 59.9483 34.1588C58.7135 33.0518 56.7833 32.9241 54.8532 32.7538C52.923 32.5835 52.0998 30.7101 49.0484 29.9437C48.58 29.8301 47.4021 30.3552 47.2885 27.829C47.175 25.3169 46.8202 17.5819 46.7634 17.0568C46.7066 16.5317 48.6368 15.9498 49.3464 13.7783C50.0561 11.6069 48.7078 13.4235 48.2394 13.8351C47.7711 14.2467 46.7776 14.7151 47.3595 12.8984C47.9414 11.0818 50.1128 9.61993 48.5375 10.0883C48.5375 10.0883 44.9609 12.0185 44.2655 16.3614C44.2655 16.3614 42.6901 27.7864 43.5559 31.3487C44.081 33.5202 49.5309 36.7987 53.9164 38.7288C56.315 39.7791 56.4285 41.4254 56.7833 43.5259C56.7833 43.5259 57.3085 46.109 58.5432 49.9126C59.778 53.7162 60.5302 55.7741 60.1186 61.4511C59.707 67.1281 57.1949 69.3564 56.2582 77.6732C55.3215 85.99 53.8597 89.6233 52.4546 92.4335C51.0495 95.2436 48.7504 104.227 47.9414 107.421C47.6433 108.599 47.3027 108.996 46.8344 109.763C46.5221 110.259 46.4512 110.941 46.4228 111.352C48.2536 111.168 50.127 111.012 52.0288 110.884C52.0714 110.344 52.1708 109.507 52.3411 108.599L52.2985 108.585Z" fill="#2982B9"/>
<path d="M65.1285 112.728C83.1673 112.728 99.3184 115.098 110.105 118.845V117.298C98.992 113.565 83.0395 111.238 65.2988 111.238C47.5581 111.238 32.9256 113.381 21.898 116.844V118.263C32.656 114.857 48.0407 112.728 65.1285 112.728Z" fill="#2982B9"/>
</svg>
