<svg width="256" height="57" viewBox="0 0 256 57" fill="none" xmlns="http://www.w3.org/2000/svg">
<path d="M90.7999 11.2002V32.3002H88.6999V15.4002L80.3999 29.6002H79.2999L70.9999 15.5002V32.3002H68.8999V11.2002H70.6999L79.8999 26.8002L88.9999 11.2002H90.7999Z" fill="white"/>
<path d="M111.4 26.5996H99.5998L97.0998 32.1996H94.7998L104.4 11.0996H106.6L116.2 32.1996H113.9L111.4 26.5996ZM110.6 24.7996L105.5 13.4996L100.4 24.7996H110.6Z" fill="white"/>
<path d="M127.3 22.6002H122.5V32.3002H120.3V11.2002H122.5V20.7002H127.3L134.4 11.2002H136.8L129 21.4002L137.3 32.2002H134.7L127.3 22.6002Z" fill="white"/>
<path d="M144.2 31C142.5 30.1 141.2 28.8 140.3 27.2C139.3 25.6 138.9 23.7 138.9 21.7C138.9 19.7 139.4 17.8 140.3 16.2C141.3 14.6 142.6 13.3 144.3 12.4C146 11.5 147.9 11 150 11C151.6 11 153 11.3 154.3 11.8C155.6 12.3 156.7 13.1 157.7 14.1L156.3 15.5C154.7 13.8 152.6 13 150.1 13C148.4 13 146.9 13.4 145.6 14.1C144.2 14.9 143.2 15.9 142.4 17.2C141.6 18.5 141.2 20 141.2 21.7C141.2 23.4 141.6 24.8 142.4 26.2C143.2 27.6 144.2 28.6 145.6 29.3C147 30.1 148.5 30.4 150.1 30.4C152.6 30.4 154.7 29.6 156.3 27.9L157.7 29.3C156.8 30.3 155.6 31.1 154.3 31.6C153 32.1 151.5 32.4 149.9 32.4C147.8 32.4 145.9 32 144.2 31Z" fill="white"/>
<path d="M162.2 11.2002H164.4V28.7002L177.9 11.2002H179.9V32.3002H177.7V14.8002L164.2 32.2002H162.2V11.2002Z" fill="white"/>
<path d="M208.9 11.2002V32.3002H206.8V15.4002L198.5 29.6002H197.4L189.1 15.5002V32.3002H187V11.2002H188.8L198 26.8002L207.1 11.2002H208.9Z" fill="white"/>
<path d="M232.6 11.1996L223 28.8996C222.3 30.1996 221.5 31.0996 220.6 31.6996C219.7 32.2996 218.7 32.5996 217.6 32.5996C216.8 32.5996 215.9 32.3996 215 31.9996L215.6 30.1996C216.3 30.4996 217 30.5996 217.6 30.5996C219 30.5996 220.1 29.7996 221 28.2996L221.6 27.2996L213 11.0996H215.4L222.7 25.3996L230.2 11.0996H232.6V11.1996Z" fill="white"/>
<path d="M239.5 31C237.8 30.1 236.5 28.8 235.6 27.2C234.6 25.6 234.2 23.7 234.2 21.7C234.2 19.7 234.7 17.8 235.6 16.2C236.6 14.6 237.9 13.3 239.6 12.4C241.3 11.5 243.2 11 245.3 11C246.9 11 248.3 11.3 249.6 11.8C250.9 12.3 252 13.1 253 14.1L251.6 15.5C250 13.8 247.9 13 245.4 13C243.7 13 242.2 13.4 240.9 14.1C239.5 14.9 238.5 15.9 237.7 17.2C236.9 18.5 236.5 20 236.5 21.7C236.5 23.4 236.9 24.8 237.7 26.2C238.5 27.5 239.5 28.6 240.9 29.3C242.3 30.1 243.8 30.4 245.4 30.4C247.9 30.4 250 29.6 251.6 27.9L253 29.3C252.1 30.3 250.9 31.1 249.6 31.6C248.3 32.1 246.8 32.4 245.2 32.4C243 32.4 241.1 32 239.5 31Z" fill="white"/>
<path d="M41.5999 41.3C40.5999 40.7 39.6999 40.5 38.5999 40.5C35.9999 40.6 33.7999 42.8 33.7999 45.5C33.7999 46.3 33.7999 46.3 32.9999 46.5C27.3999 47.2 21.4999 44.5 18.6999 39.3C17.4999 37 16.8999 34.5 17.0999 31.9C17.0999 31.8 17.0999 31.7 17.1999 31.5C17.3999 31.7 17.4999 31.9 17.4999 32C19.0999 34.8 21.3999 36.8 24.5999 37.7C28.1999 38.6 31.5999 38 34.6999 35.9C38.2999 33.4 40.3999 29.9 40.9999 25.7C41.9999 18.9 39.9999 13.1 34.9999 8.4C34.8999 8.3 34.7999 8.2 34.5999 8.1C34.5999 8.1 34.5999 8.1 34.5999 8C34.7999 8.1 34.8999 8.1 34.9999 8.2C41.0999 11.7 45.2999 16.7 46.5999 23.7C47.8999 30.2 46.2999 36.1 41.8999 41.1C41.8999 41 41.7999 41.1 41.5999 41.3Z" fill="white"/>
<path d="M31.2997 9.40008C36.0997 12.2001 38.8997 16.3001 39.1997 21.9001C39.4997 26.5001 37.5997 30.3001 33.9997 33.1001C34.1997 32.4001 34.3997 31.7001 34.5997 30.9001C35.1997 27.2001 34.3997 23.9001 31.7997 21.1001C28.8997 17.9001 25.1997 16.4001 20.8997 16.5001C14.9997 16.6001 10.3997 19.2001 6.69971 23.7001C4.99971 25.8001 3.69971 28.1001 3.09971 30.7001C3.09971 30.8001 2.99971 30.8001 2.99971 30.9001C2.99971 30.9001 2.89971 30.9001 2.79971 31.0001C2.79971 30.8001 2.69971 30.6001 2.69971 30.5001C2.69971 22.9001 5.49971 16.7001 11.5997 12.0001C14.4997 9.80008 17.7997 8.40008 21.4997 7.90008C21.8997 7.80008 22.1997 7.90008 22.3997 8.40008C23.5997 12.0001 28.5997 12.9001 30.9997 9.80008C30.9997 9.70008 31.0997 9.60008 31.2997 9.40008Z" fill="white"/>
<path d="M34.6996 49.9996C33.2996 50.2996 31.9996 50.6997 30.5996 50.8997C27.4996 51.3997 24.3996 51.2996 21.3996 50.4996C16.4996 49.1996 12.3996 46.5996 9.19961 42.5996C8.79961 41.9996 8.39961 41.3996 7.99961 40.7996C7.79961 40.4996 7.79961 40.2996 8.09961 40.0996C10.2996 38.0996 10.4996 34.7996 8.49961 32.6996C7.99961 32.1996 7.19961 31.7996 6.49961 31.3996C6.19961 31.1996 6.09961 31.1996 6.09961 30.7996C7.39961 25.0996 10.5996 21.0996 16.2996 19.2996C18.7996 18.4996 21.2996 18.4996 23.8996 19.1996C24.0996 19.1996 24.1996 19.2996 24.2996 19.3996C22.9996 19.9996 21.6996 20.4996 20.5996 21.1996C17.1996 23.2996 15.2996 26.4996 14.7996 30.3996C14.0996 36.2996 16.2996 41.0997 20.6996 44.8997C24.4996 48.1997 28.9996 49.6996 33.9996 49.5996C34.1996 49.5996 34.2996 49.5996 34.4996 49.5996C34.4996 49.5996 34.5996 49.5996 34.5996 49.6996C34.5996 49.8996 34.5996 49.9996 34.6996 49.9996Z" fill="white"/>
<path d="M23.0997 6.49968C22.9997 4.29968 24.9997 2.49968 27.1997 2.59968C29.2997 2.69968 31.0997 4.39968 31.0997 6.49968C31.0997 8.89968 29.2997 10.6997 26.9997 10.6997C24.7997 10.5997 22.9997 8.79968 23.0997 6.49968Z" fill="white"/>
<path d="M42.8998 45.7001C42.9998 47.7001 41.0998 49.7001 38.7998 49.7001C36.4998 49.7001 34.7998 47.8001 34.7998 45.4001C34.7998 43.4001 36.7998 41.7001 39.0998 41.7001C41.1998 41.6001 42.8998 43.5001 42.8998 45.7001Z" fill="white"/>
<path d="M4.7998 32.1992C6.9998 32.1992 8.7998 33.9992 8.7998 36.1992C8.7998 38.3992 7.0998 40.1992 4.7998 40.1992C2.5998 40.1992 0.799805 38.3992 0.799805 36.1992C0.799805 33.9992 2.5998 32.2992 4.7998 32.1992Z" fill="white"/>
<path d="M74.1998 41.3998C74.6998 41.6998 75.1998 42.0998 75.4998 42.6998C75.7998 43.2998 75.9998 43.8998 75.9998 44.5998C75.9998 45.2998 75.7998 45.8998 75.4998 46.4998C75.1998 46.9998 74.7998 47.4998 74.1998 47.7998C73.6998 48.0998 73.0998 48.2998 72.3998 48.2998C71.6998 48.2998 71.0998 48.0998 70.4998 47.7998C69.8998 47.4998 69.4998 46.9998 69.2998 46.3998V50.9998H68.7998V41.1998H69.1998V43.1998C69.4998 42.5998 69.8998 42.0998 70.3998 41.6998C70.8998 41.2998 71.5998 41.1998 72.2998 41.1998C73.0998 40.8998 73.6998 40.9998 74.1998 41.3998ZM73.9998 47.2998C74.4998 46.9998 74.7998 46.6998 75.0998 46.1998C75.3998 45.6998 75.4998 45.1998 75.4998 44.4998C75.4998 43.7998 75.3998 43.2998 75.0998 42.7998C74.7998 42.2998 74.4998 41.9998 73.9998 41.6998C73.4998 41.3998 72.9998 41.2998 72.3998 41.2998C71.7998 41.2998 71.2998 41.3998 70.7998 41.6998C70.2998 41.9998 69.9998 42.2998 69.6998 42.7998C69.3998 43.2998 69.2998 43.7998 69.2998 44.4998C69.2998 45.1998 69.3998 45.6998 69.6998 46.1998C69.9998 46.6998 70.2998 47.0998 70.7998 47.2998C71.2998 47.4998 71.7998 47.6998 72.3998 47.6998C72.9998 47.6998 73.5998 47.5998 73.9998 47.2998Z" fill="white"/>
<path d="M84.2998 44.5992H77.9998C77.9998 45.1992 78.1998 45.6992 78.3998 46.1992C78.6998 46.6992 79.0998 46.9992 79.4998 47.2992C79.9998 47.5992 80.4998 47.6992 81.0998 47.6992C81.5998 47.6992 81.9998 47.5992 82.3998 47.3992C82.7998 47.1992 83.1998 46.9992 83.3998 46.5992L83.6998 46.8992C83.3998 47.2992 82.9998 47.5992 82.4998 47.7992C81.9998 47.9992 81.4998 48.0992 80.9998 48.0992C80.2998 48.0992 79.6998 47.8992 79.0998 47.5992C78.5998 47.2992 78.0998 46.8992 77.7998 46.2992C77.4998 45.6992 77.2998 45.0992 77.2998 44.3992C77.2998 43.6992 77.3998 43.0992 77.6998 42.4992C77.9998 41.8992 78.3998 41.4992 78.8998 41.1992C79.3998 40.8992 79.9998 40.6992 80.5998 40.6992C81.1998 40.6992 81.7998 40.8992 82.2998 41.1992C82.7998 41.4992 83.1998 41.8992 83.4998 42.4992C83.7998 42.9992 83.8998 43.6992 83.8998 44.2992V44.5992H84.2998ZM79.4998 41.6992C79.0998 41.8992 78.6998 42.2992 78.4998 42.6992C78.1998 43.0992 78.0998 43.5992 78.0998 44.1992H83.8998C83.8998 43.5992 83.6998 43.1992 83.4998 42.6992C83.2998 42.1992 82.8998 41.8992 82.4998 41.6992C82.0998 41.4992 81.5998 41.2992 81.0998 41.2992C80.3998 41.2992 79.9998 41.3992 79.4998 41.6992Z" fill="white"/>
<path d="M90.6998 41.5994C91.1998 41.9994 91.3998 42.6994 91.3998 43.4994V48.0994H90.9998V46.6994C90.7998 47.1994 90.3998 47.4994 89.9998 47.7994C89.4998 48.0994 88.9998 48.1994 88.3998 48.1994C87.5998 48.1994 86.9998 47.9994 86.4998 47.5994C85.9998 47.1994 85.7998 46.6994 85.7998 46.0994C85.7998 45.4994 85.9998 45.0994 86.3998 44.6994C86.7998 44.2994 87.4998 44.1994 88.3998 44.1994H90.9998V43.4994C90.9998 42.7994 90.7998 42.2994 90.3998 41.8994C89.9998 41.4994 89.4998 41.2994 88.7998 41.2994C88.2998 41.2994 87.7998 41.3994 87.3998 41.5994C86.9998 41.7994 86.5998 41.9994 86.2998 42.2994L86.0998 41.9994C86.3998 41.6994 86.8998 41.3994 87.3998 41.1994C87.8998 40.9994 88.3998 40.8994 88.8998 40.8994C89.5998 40.8994 90.1998 41.0994 90.6998 41.5994ZM90.8998 45.9994V44.4994H88.2998C87.5998 44.4994 86.9998 44.5994 86.6998 44.8994C86.3998 45.1994 86.1998 45.5994 86.1998 45.9994C86.1998 46.4994 86.3998 46.8994 86.7998 47.1994C87.1998 47.4994 87.6998 47.5994 88.3998 47.5994C89.5998 47.6994 90.4998 47.1994 90.8998 45.9994Z" fill="white"/>
<path d="M99.2999 41.4996C99.7999 41.7996 100.2 42.1996 100.5 42.7996C100.8 43.2996 100.9 43.8996 100.9 44.5996C100.9 45.2996 100.8 45.8996 100.5 46.4996C100.2 46.9996 99.7999 47.4996 99.2999 47.7996C98.7999 48.0996 98.1999 48.2996 97.4999 48.2996C96.6999 48.2996 96.0999 48.0996 95.4999 47.6996C94.9999 47.2996 94.4999 46.7996 94.2999 46.0996C93.9999 45.3996 93.8999 44.5996 93.8999 43.6996C93.8999 42.5996 93.9999 41.6996 94.2999 40.9996C94.5999 40.2996 94.8999 39.6996 95.4999 39.2996C95.9999 38.8996 96.6999 38.5996 97.4999 38.3996L100.6 37.5996L100.7 37.9996L97.6999 38.6996C96.8999 38.8996 96.2999 39.1996 95.7999 39.4996C95.2999 39.8996 94.9999 40.3996 94.6999 40.9996C94.4999 41.5996 94.2999 42.4996 94.2999 43.4996C94.4999 42.7996 94.8999 42.1996 95.4999 41.6996C96.0999 41.2996 96.7999 40.9996 97.5999 40.9996C98.1999 40.9996 98.6999 41.1996 99.2999 41.4996ZM98.9999 47.2996C99.4999 46.9996 99.7999 46.6996 100.1 46.1996C100.4 45.6996 100.5 45.1996 100.5 44.4996C100.5 43.8996 100.4 43.2996 100.1 42.8996C99.7999 42.3996 99.4999 42.0996 98.9999 41.7996C98.4999 41.4996 97.9999 41.3996 97.4999 41.3996C96.9999 41.3996 96.3999 41.4996 95.8999 41.7996C95.3999 42.0996 95.0999 42.3996 94.7999 42.8996C94.4999 43.3996 94.3999 43.8996 94.3999 44.4996C94.3999 45.0996 94.4999 45.6996 94.7999 46.1996C95.0999 46.6996 95.3999 47.0996 95.8999 47.2996C96.3999 47.5996 96.8999 47.6996 97.3999 47.6996C97.8999 47.6996 98.5999 47.5996 98.9999 47.2996Z" fill="white"/>
<path d="M103.3 40.8994H103.8V47.2994L109.2 40.8994H109.6V47.9994H109.1V41.5994L103.7 47.9994H103.3V40.8994Z" fill="white"/>
<path d="M118 40.8998V47.9998H117.5V41.2998H113.5L113.4 43.2998C113.3 44.2998 113.3 45.0998 113.2 45.7998C113.1 46.4998 112.9 46.9998 112.7 47.3998C112.4 47.7998 112.1 47.9998 111.6 47.9998C111.5 47.9998 111.3 47.9998 111.1 47.8998L111.2 47.4998C111.3 47.4998 111.5 47.5998 111.5 47.5998C111.9 47.5998 112.2 47.3998 112.4 46.9998C112.6 46.5998 112.8 46.0998 112.8 45.4998C112.9 44.8998 112.9 44.0998 113 43.1998L113.1 40.7998H118V40.8998Z" fill="white"/>
<path d="M121.1 40.8994H121.6V47.2994L127 40.8994H127.4V47.9994H126.9V41.5994L121.5 47.9994H121.1V40.8994Z" fill="white"/>
<path d="M135 41.4H132.2V48.1H131.7V41.4H128.8V41H135V41.4Z" fill="white"/>
<path d="M140.8 41.5994C141.3 41.9994 141.5 42.6994 141.5 43.4994V48.0994H141V46.6994C140.8 47.1994 140.4 47.4994 140 47.7994C139.5 48.0994 139 48.1994 138.4 48.1994C137.6 48.1994 137 47.9994 136.5 47.5994C136 47.1994 135.8 46.6994 135.8 46.0994C135.8 45.4994 136 45.0994 136.4 44.6994C136.8 44.2994 137.5 44.1994 138.4 44.1994H141V43.4994C141 42.7994 140.8 42.2994 140.4 41.8994C140 41.4994 139.5 41.2994 138.8 41.2994C138.3 41.2994 137.8 41.3994 137.4 41.5994C137 41.7994 136.6 41.9994 136.3 42.2994L136.1 41.9994C136.4 41.6994 136.9 41.3994 137.4 41.1994C137.9 40.9994 138.4 40.8994 138.9 40.8994C139.7 40.8994 140.3 41.0994 140.8 41.5994ZM141 45.9994V44.4994H138.4C137.7 44.4994 137.1 44.5994 136.8 44.8994C136.5 45.1994 136.3 45.5994 136.3 45.9994C136.3 46.4994 136.5 46.8994 136.9 47.1994C137.3 47.4994 137.8 47.5994 138.5 47.5994C139.7 47.6994 140.6 47.1994 141 45.9994Z" fill="white"/>
<path d="M151.6 47.7V50H151.2V48.1H144.5V41H145V47.7H150.1V41H150.6V47.7H151.6Z" fill="white"/>
<path d="M153.7 40.8994H154.2V47.2994L159.6 40.8994H160V47.9994H159.5V41.5994L154.1 47.9994H153.7V40.8994Z" fill="white"/>
<path d="M164 47.6998C163.5 47.3998 163 46.9998 162.7 46.3998C162.4 45.7998 162.2 45.1998 162.2 44.4998C162.2 43.7998 162.4 43.1998 162.7 42.5998C163 41.9998 163.4 41.5998 164 41.2998C164.5 40.9998 165.1 40.7998 165.8 40.7998C166.5 40.7998 167.1 40.9998 167.6 41.2998C168.1 41.5998 168.6 41.9998 168.9 42.5998C169.2 43.1998 169.4 43.7998 169.4 44.4998C169.4 45.1998 169.2 45.7998 168.9 46.3998C168.6 46.9998 168.2 47.3998 167.6 47.6998C167.1 47.9998 166.5 48.1998 165.8 48.1998C165.1 48.0998 164.5 47.9998 164 47.6998ZM167.3 47.2998C167.8 46.9998 168.1 46.6998 168.4 46.1998C168.7 45.6998 168.8 45.1998 168.8 44.4998C168.8 43.7998 168.7 43.2998 168.4 42.7998C168.1 42.2998 167.8 41.8998 167.3 41.6998C166.8 41.4998 166.3 41.2998 165.7 41.2998C165.1 41.2998 164.6 41.3998 164.1 41.6998C163.6 41.9998 163.3 42.2998 163 42.7998C162.7 43.2998 162.6 43.7998 162.6 44.4998C162.6 45.1998 162.7 45.6998 163 46.1998C163.3 46.6998 163.6 47.0998 164.1 47.2998C164.6 47.4998 165.1 47.6998 165.7 47.6998C166.3 47.6998 166.9 47.5998 167.3 47.2998Z" fill="white"/>
<path d="M171.7 40.8994H172.2V44.1994H177.3V40.8994H177.8V47.9994H177.3V44.5994H172.2V47.9994H171.7V40.8994Z" fill="white"/>
<path d="M180.8 40.8994H181.3V44.1994H186.4V40.8994H186.9V47.9994H186.4V44.5994H181.3V47.9994H180.8V40.8994Z" fill="white"/>
<path d="M194.7 44.1994C195.2 44.5994 195.4 45.0994 195.4 45.7994C195.4 46.5994 195.2 47.0994 194.7 47.4994C194.2 47.8994 193.5 48.0994 192.6 48.0994H190.1V40.9994H190.6V43.5994H192.8C193.6 43.5994 194.2 43.7994 194.7 44.1994ZM194.3 47.2994C194.7 46.9994 194.9 46.4994 194.9 45.8994C194.9 45.2994 194.7 44.7994 194.3 44.4994C193.9 44.1994 193.3 43.9994 192.5 43.9994H190.4V47.7994H192.5C193.3 47.6994 193.9 47.5994 194.3 47.2994ZM196.8 40.8994H197.3V47.9994H196.8V40.8994Z" fill="white"/>
<path d="M200.3 40.8992H200.8V47.2992L206.2 40.8992H206.6V47.9992H206.1V41.5992L200.7 47.9992H200.3V40.8992ZM202.1 39.3992C201.7 39.0992 201.6 38.6992 201.6 38.1992H202C202 38.5992 202.2 38.8992 202.4 39.0992C202.7 39.2992 203 39.4992 203.5 39.4992C203.9 39.4992 204.3 39.3992 204.6 39.0992C204.9 38.8992 205 38.5992 205 38.1992H205.4C205.4 38.6992 205.2 39.0992 204.9 39.3992C204.5 39.6992 204.1 39.7992 203.6 39.7992C203.1 39.7992 202.5 39.5992 202.1 39.3992Z" fill="white"/>
<path d="M220.3 47.7V50H219.9V48.1H213.2V41H213.7V47.7H218.8V41H219.3V47.7H220.3Z" fill="white"/>
<path d="M228.4 44.5998H222.1C222.1 45.1998 222.3 45.6998 222.5 46.1998C222.8 46.6998 223.2 46.9998 223.6 47.2998C224.1 47.5998 224.6 47.6998 225.2 47.6998C225.7 47.6998 226.1 47.5998 226.5 47.3998C226.9 47.1998 227.3 46.9998 227.5 46.5998L228 46.9998C227.7 47.3998 227.3 47.6998 226.8 47.8998C226.3 48.0998 225.8 48.1998 225.3 48.1998C224.6 48.1998 224 47.9998 223.4 47.6998C222.9 47.3998 222.4 46.9998 222.1 46.3998C221.8 45.7998 221.6 45.1998 221.6 44.4998C221.6 43.7998 221.7 43.1998 222 42.5998C222.3 41.9998 222.7 41.5998 223.2 41.2998C223.7 40.9998 224.3 40.7998 224.9 40.7998C225.5 40.7998 226.1 40.9998 226.6 41.2998C227.1 41.5998 227.5 41.9998 227.8 42.5998C228.1 43.0998 228.2 43.7998 228.2 44.3998V44.5998H228.4ZM223.6 41.6998C223.2 41.8998 222.8 42.2998 222.6 42.6998C222.3 43.0998 222.2 43.5998 222.2 44.1998H228C228 43.5998 227.8 43.1998 227.6 42.6998C227.4 42.1998 227 41.8998 226.6 41.6998C226.2 41.4998 225.7 41.2998 225.2 41.2998C224.5 41.2998 224.1 41.3998 223.6 41.6998Z" fill="white"/>
<path d="M230.7 40.8994H231.2V44.1994H236.3V40.8994H236.8V47.9994H236.3V44.5994H231.2V47.9994H230.7V40.8994Z" fill="white"/>
<path d="M244.5 41.4H241.7V48.1H241.2V41.4H238.3V41H244.5V41.4Z" fill="white"/>
<path d="M251.3 41.3998C251.8 41.6998 252.3 42.0998 252.6 42.6998C252.9 43.2998 253.1 43.8998 253.1 44.5998C253.1 45.2998 252.9 45.8998 252.6 46.4998C252.3 46.9998 251.9 47.4998 251.3 47.7998C250.8 48.0998 250.2 48.2998 249.5 48.2998C248.8 48.2998 248.2 48.0998 247.6 47.7998C247.1 47.4998 246.6 46.9998 246.4 46.3998V50.9998H246V41.1998H246.4V43.1998C246.7 42.5998 247.1 42.0998 247.6 41.6998C248.1 41.2998 248.8 41.1998 249.5 41.1998C250.2 40.8998 250.8 40.9998 251.3 41.3998ZM251.1 47.2998C251.6 46.9998 251.9 46.6998 252.2 46.1998C252.5 45.6998 252.6 45.1998 252.6 44.4998C252.6 43.7998 252.5 43.2998 252.2 42.7998C251.9 42.2998 251.6 41.8998 251.1 41.6998C250.6 41.3998 250.1 41.2998 249.5 41.2998C248.9 41.2998 248.4 41.3998 247.9 41.6998C247.4 41.9998 247.1 42.2998 246.8 42.7998C246.5 43.2998 246.4 43.7998 246.4 44.4998C246.4 45.1998 246.5 45.6998 246.8 46.1998C247.1 46.6998 247.4 47.0998 247.9 47.2998C248.4 47.5998 248.9 47.6998 249.5 47.6998C250.1 47.6998 250.6 47.5998 251.1 47.2998Z" fill="white"/>
</svg>
