<?xml version="1.0" encoding="UTF-8"?>
<svg id="Layer_1" xmlns="http://www.w3.org/2000/svg" version="1.1" viewBox="0 0 297.64 85.04">
  <!-- Generator: Adobe Illustrator 29.8.1, SVG Export Plug-In . SVG Version: 2.1.1 Build 2)  -->
  <defs>
    <style>
      .st0 {
        fill: #77af76;
      }

      .st1 {
        fill: #2982b9;
      }

      .st2 {
        fill: #8ebaae;
      }
    </style>
  </defs>
  <path class="st2" d="M26.19,26.21s-1.93-.84-3.1.63-1.68,2.26-2.05,3.1-.93-.06-2.62.27-1.84,1.08-2.29,2.05-1.65.42-1.87.48-.21.66.93,1.32,2.11-.09,2.47-.45,1.77-.48,2.38-.09,1.61,1.43,3.01.96c.27-.09.09.36-.27.48s-1.29.3-1.59,1.23-1.53,3.49-7.13,7.1c0,0-.09.12-1.29-.15s-1.87.3-2.14.21.15.42.99.39,1.62.57,2.11.42,5.12-2.35,7.82-4.84c.39-.36.09.03.15.9s.42,3.37.78,4.48.57,1.2-.93,2.17-5.66,3.94-7.04,5.6,3.4,4.69,3.82,4.96,4.6,3.16,4.78,3.58-.15.9.03,1.93.06,1.71-.09,1.84.12.48.51-.09.57-1.2.63-1.71.21-1.08.63-1.44.66-1.32-.36-1.35-2.38-4.09-6.05-5.9c0,0-1.2-.39-.36-.93s1.05-.78,1.05-.78c0,0-1.23,1.17-.51,2.53s7.13,1.2,11.82,1.62c0,0,.63-.21,1.05.75s.78,1.2.96,1.59.33,1.02.3,1.17.42.54.51-.42-.3-1.77-.48-2.17-.36-1.35-.12-1.77-.15-1.17-.93-.84-1.9.36-2.74.09-2.68-1.14-6.44-1.44c0,0-.81.12.42-.93s2.26-2.32,3.61-2.83,2.26-1.44,1.84-3.04-2.44-2.29-2.44-4.36,1.59-5.32,5.02-9.39c3.43-4.06,3.61-7.85,3.55-8.69,0,0-.03.06.15-.33s.54-.57.48-.78-.48.09-.66.24-.48-.9-.21-1.77-.36-.6-.78.45.18,1.99.03,2.89-1.23,4.72-5.99,8.42c0,0-1.2.66-1.26-.18s.87-1.17,1.38-2.02,1.65-4.6-1.5-5.14Z"/>
  <g>
    <g>
      <path class="st1" d="M95.99,48.01l-.04-17.92-8.89,14.93h-1.62l-8.89-14.83v17.81h-3.37v-24.59h2.88l10.26,17.28,10.12-17.28h2.88l.04,24.59h-3.37Z"/>
      <path class="st1" d="M123,41.87h-13.07l-2.71,6.15h-3.62l11.14-24.59h3.48l11.17,24.59h-3.69l-2.71-6.15ZM121.78,39.06l-5.3-12.05-5.31,12.05h10.61Z"/>
      <path class="st1" d="M142.22,37.19h-5.13v10.82h-3.44v-24.59h3.44v10.68h5.2l7.73-10.68h3.76l-8.78,11.91,9.2,12.68h-4l-7.97-10.82Z"/>
      <path class="st1" d="M162.09,46.66c-1.98-1.09-3.53-2.59-4.66-4.5-1.12-1.91-1.69-4.06-1.69-6.45s.56-4.54,1.69-6.45c1.12-1.91,2.68-3.41,4.67-4.5,1.99-1.09,4.22-1.63,6.67-1.63,1.92,0,3.68.32,5.27.97,1.59.64,2.95,1.6,4.08,2.86l-2.28,2.21c-1.85-1.94-4.16-2.92-6.92-2.92-1.83,0-3.48.41-4.95,1.23-1.48.82-2.63,1.95-3.46,3.39s-1.25,3.05-1.25,4.83.42,3.39,1.25,4.83,1.99,2.57,3.46,3.39c1.48.82,3.13,1.23,4.95,1.23,2.74,0,5.05-.98,6.92-2.95l2.28,2.21c-1.12,1.26-2.49,2.22-4.09,2.88-1.6.66-3.37.98-5.29.98-2.46,0-4.68-.54-6.66-1.63Z"/>
      <path class="st1" d="M182.97,23.42h3.48v18.97l14.54-18.97h3.23v24.59h-3.44v-18.94l-14.58,18.94h-3.23v-24.59Z"/>
      <path class="st1" d="M234.69,48.01l-.04-17.92-8.89,14.93h-1.62l-8.89-14.83v17.81h-3.37v-24.59h2.88l10.26,17.28,10.12-17.28h2.88l.04,24.59h-3.37Z"/>
      <path class="st1" d="M265.85,23.42l-10.93,20.27c-.87,1.62-1.89,2.82-3.06,3.62-1.17.8-2.45,1.19-3.83,1.19-1.08,0-2.18-.25-3.3-.74l.91-2.81c.87.3,1.64.46,2.32.46,1.54,0,2.82-.82,3.83-2.46l.56-.88-9.91-18.65h3.76l7.97,15.6,8.19-15.6h3.48Z"/>
      <path class="st1" d="M273.56,46.66c-1.98-1.09-3.53-2.59-4.66-4.5-1.12-1.91-1.69-4.06-1.69-6.45s.56-4.54,1.69-6.45c1.12-1.91,2.68-3.41,4.67-4.5,1.99-1.09,4.22-1.63,6.67-1.63,1.92,0,3.68.32,5.27.97,1.59.64,2.95,1.6,4.08,2.86l-2.28,2.21c-1.85-1.94-4.16-2.92-6.92-2.92-1.83,0-3.48.41-4.95,1.23-1.48.82-2.63,1.95-3.46,3.39s-1.25,3.05-1.25,4.83.42,3.39,1.25,4.83,1.99,2.57,3.46,3.39c1.48.82,3.13,1.23,4.95,1.23,2.74,0,5.05-.98,6.92-2.95l2.28,2.21c-1.12,1.26-2.49,2.22-4.09,2.88-1.6.66-3.37.98-5.29.98-2.46,0-4.68-.54-6.66-1.63Z"/>
    </g>
    <g>
      <path class="st0" d="M79.99,56.99c.65.36,1.16.87,1.53,1.53.37.65.55,1.41.55,2.26s-.18,1.61-.55,2.27c-.37.66-.88,1.17-1.53,1.53-.65.36-1.39.55-2.22.55-.61,0-1.17-.12-1.68-.35-.51-.24-.94-.58-1.29-1.03v4.4h-1.54v-11.63h1.48v1.35c.34-.47.78-.83,1.3-1.07.52-.24,1.1-.36,1.73-.36.82,0,1.56.18,2.22.55ZM79.12,63.41c.43-.25.78-.6,1.03-1.06s.38-.98.38-1.57-.13-1.11-.38-1.57c-.25-.45-.59-.8-1.03-1.05-.43-.25-.92-.37-1.47-.37s-1.02.13-1.45.38c-.43.25-.78.6-1.03,1.05-.25.45-.38.97-.38,1.56s.12,1.11.37,1.57c.25.46.59.81,1.03,1.06.44.25.93.38,1.46.38s1.04-.12,1.47-.38Z"/>
      <path class="st0" d="M91.73,61.29h-6.9c.1.75.43,1.35.99,1.81s1.26.68,2.1.68c1.02,0,1.84-.34,2.46-1.03l.85,1c-.39.45-.86.79-1.44,1.03s-1.21.35-1.92.35c-.9,0-1.7-.18-2.39-.55-.7-.37-1.23-.89-1.61-1.55-.38-.66-.57-1.41-.57-2.25s.18-1.57.55-2.23c.37-.66.88-1.18,1.53-1.55.65-.37,1.38-.55,2.19-.55s1.54.18,2.18.55c.64.37,1.13.89,1.49,1.55s.54,1.42.54,2.28c0,.12-.01.27-.03.47ZM85.7,58.42c-.5.45-.79,1.04-.88,1.77h5.46c-.09-.72-.38-1.3-.88-1.76-.5-.46-1.12-.68-1.85-.68s-1.36.22-1.85.67Z"/>
      <path class="st0" d="M99.41,57.31c.63.58.94,1.44.94,2.58v5.14h-1.46v-1.12c-.26.4-.62.7-1.1.91-.48.21-1.04.31-1.69.31-.95,0-1.72-.23-2.29-.69-.57-.46-.86-1.07-.86-1.81s.27-1.35.82-1.81,1.41-.68,2.6-.68h2.44v-.31c0-.66-.19-1.17-.58-1.53-.39-.35-.95-.53-1.7-.53-.5,0-1,.08-1.48.25-.48.17-.89.39-1.22.67l-.64-1.16c.44-.35.96-.62,1.57-.81.61-.19,1.26-.28,1.94-.28,1.18,0,2.08.29,2.71.87ZM97.88,63.55c.43-.26.74-.63.93-1.12v-1.19h-2.38c-1.31,0-1.96.44-1.96,1.32,0,.43.17.77.5,1.01s.79.37,1.38.37,1.1-.13,1.53-.39Z"/>
      <path class="st0" d="M109.34,57.34c.62.35,1.1.84,1.45,1.47.35.63.52,1.34.52,2.14s-.19,1.56-.55,2.19-.89,1.13-1.56,1.49-1.43.53-2.29.53c-1.45,0-2.56-.5-3.35-1.49-.79-.99-1.18-2.38-1.18-4.18s.36-3.11,1.08-4.1,1.81-1.65,3.29-1.97l3.89-.87.23,1.41-3.58.77c-1.11.25-1.94.66-2.49,1.25s-.86,1.43-.93,2.54c.36-.55.84-.97,1.41-1.27.58-.3,1.23-.45,1.94-.45.79,0,1.5.18,2.12.53ZM108.4,63.51c.42-.25.75-.59.99-1.02s.35-.93.35-1.49c0-.85-.26-1.53-.77-2.04-.51-.51-1.19-.77-2.02-.77s-1.51.26-2.03.77c-.52.51-.78,1.19-.78,2.04,0,.56.12,1.05.36,1.49.24.43.58.77,1,1.02.43.25.91.37,1.45.37s1.03-.12,1.45-.37Z"/>
      <path class="st0" d="M113.28,56.53h1.54v6.2l5.22-6.2h1.4v8.51h-1.54v-6.2l-5.2,6.2h-1.41v-8.51Z"/>
      <path class="st0" d="M131.49,56.53v8.51h-1.54v-7.16h-3.66l-.1,1.9c-.05,1.15-.16,2.1-.31,2.87s-.4,1.38-.74,1.84c-.34.46-.82.69-1.43.69-.28,0-.59-.05-.95-.14l.1-1.3c.14.03.27.05.39.05.43,0,.75-.19.96-.56.21-.37.35-.82.42-1.33.06-.51.12-1.25.18-2.2l.14-3.15h6.54Z"/>
      <path class="st0" d="M134.23,56.53h1.54v6.2l5.22-6.2h1.4v8.51h-1.54v-6.2l-5.2,6.2h-1.41v-8.51Z"/>
      <path class="st0" d="M151.48,57.87h-3.12v7.16h-1.54v-7.16h-3.11v-1.35h7.77v1.35Z"/>
      <path class="st0" d="M158.55,57.31c.63.58.94,1.44.94,2.58v5.14h-1.46v-1.12c-.26.4-.62.7-1.1.91s-1.04.31-1.69.31c-.95,0-1.72-.23-2.29-.69-.57-.46-.86-1.07-.86-1.81s.27-1.35.82-1.81,1.41-.68,2.6-.68h2.44v-.31c0-.66-.19-1.17-.58-1.53-.39-.35-.95-.53-1.7-.53-.5,0-1,.08-1.48.25-.48.17-.89.39-1.22.67l-.64-1.16c.44-.35.96-.62,1.57-.81.61-.19,1.26-.28,1.94-.28,1.18,0,2.08.29,2.71.87ZM157.02,63.55c.43-.26.74-.63.93-1.12v-1.19h-2.38c-1.31,0-1.96.44-1.96,1.32,0,.43.17.77.5,1.01s.79.37,1.38.37,1.1-.13,1.53-.39Z"/>
      <path class="st0" d="M171.12,63.69v3.39h-1.46v-2.04h-7.63v-8.51h1.54v7.16h4.66v-7.16h1.54v7.16h1.35Z"/>
      <path class="st0" d="M172.87,56.53h1.54v6.2l5.22-6.2h1.4v8.51h-1.54v-6.2l-5.2,6.2h-1.41v-8.51Z"/>
      <path class="st0" d="M185.13,64.57c-.67-.37-1.2-.89-1.58-1.55-.38-.66-.57-1.4-.57-2.24s.19-1.58.57-2.24.91-1.17,1.58-1.54c.67-.37,1.43-.55,2.28-.55s1.6.18,2.27.55,1.19.88,1.57,1.54.57,1.41.57,2.24-.19,1.58-.57,2.24c-.38.66-.91,1.18-1.57,1.55-.67.38-1.43.56-2.27.56s-1.61-.19-2.28-.56ZM188.88,63.41c.43-.25.77-.6,1.02-1.06.25-.46.37-.98.37-1.57s-.12-1.11-.37-1.57c-.25-.45-.59-.8-1.02-1.05-.43-.25-.92-.37-1.47-.37s-1.04.12-1.47.37c-.43.25-.78.6-1.03,1.05-.25.46-.38.98-.38,1.57s.13,1.11.38,1.57c.25.46.59.81,1.03,1.06.43.25.92.38,1.47.38s1.04-.12,1.47-.38Z"/>
      <path class="st0" d="M193.82,56.53h1.54v3.61h4.85v-3.61h1.54v8.51h-1.54v-3.56h-4.85v3.56h-1.54v-8.51Z"/>
      <path class="st0" d="M204.52,56.53h1.54v3.61h4.85v-3.61h1.54v8.51h-1.54v-3.56h-4.85v3.56h-1.54v-8.51Z"/>
      <path class="st0" d="M221.5,60.15c.57.48.85,1.16.85,2.04s-.31,1.63-.92,2.13c-.62.5-1.5.74-2.64.73l-3.58-.02v-8.51h1.54v2.87l2.3.02c1.07.01,1.89.26,2.46.74ZM220.26,63.46c.36-.29.54-.72.54-1.29s-.18-.96-.53-1.22c-.35-.26-.88-.39-1.59-.4l-1.93-.03v3.34l1.93.02c.7.01,1.22-.13,1.58-.42ZM223.62,56.53h1.54v8.51h-1.54v-8.51Z"/>
      <path class="st0" d="M227.93,56.53h1.54v6.2l5.22-6.2h1.4v8.51h-1.54v-6.2l-5.2,6.2h-1.41v-8.51ZM230.06,54.85c-.44-.38-.66-.93-.67-1.65h1.04c.01.4.15.71.41.96.26.24.61.36,1.05.36s.79-.12,1.06-.36c.27-.24.41-.56.42-.96h1.08c-.01.72-.24,1.27-.69,1.65s-1.07.57-1.85.57-1.41-.19-1.85-.57Z"/>
      <path class="st0" d="M252,63.69v3.39h-1.46v-2.04h-7.63v-8.51h1.54v7.16h4.66v-7.16h1.54v7.16h1.35Z"/>
      <path class="st0" d="M261.41,61.29h-6.91c.1.75.43,1.35.99,1.81.56.46,1.26.68,2.1.68,1.02,0,1.84-.34,2.46-1.03l.85,1c-.38.45-.86.79-1.44,1.03-.57.24-1.21.35-1.92.35-.9,0-1.7-.18-2.39-.55-.7-.37-1.23-.89-1.61-1.55-.38-.66-.57-1.41-.57-2.25s.19-1.57.55-2.23.88-1.18,1.53-1.55,1.38-.55,2.19-.55,1.54.18,2.18.55,1.13.89,1.49,1.55c.36.66.54,1.42.54,2.28,0,.12-.01.27-.03.47ZM255.38,58.42c-.5.45-.79,1.04-.88,1.77h5.46c-.09-.72-.38-1.3-.88-1.76-.5-.46-1.12-.68-1.86-.68s-1.36.22-1.85.67Z"/>
      <path class="st0" d="M263.59,56.53h1.54v3.61h4.85v-3.61h1.54v8.51h-1.54v-3.56h-4.85v3.56h-1.54v-8.51Z"/>
      <path class="st0" d="M280.63,57.87h-3.12v7.16h-1.54v-7.16h-3.12v-1.35h7.77v1.35Z"/>
      <path class="st0" d="M288.69,56.99c.65.36,1.16.87,1.53,1.53.37.65.55,1.41.55,2.26s-.18,1.61-.55,2.27-.88,1.17-1.53,1.53c-.65.36-1.39.55-2.22.55-.61,0-1.17-.12-1.68-.35-.51-.24-.94-.58-1.29-1.03v4.4h-1.54v-11.63h1.48v1.35c.34-.47.78-.83,1.3-1.07s1.1-.36,1.73-.36c.82,0,1.56.18,2.22.55ZM287.81,63.41c.43-.25.78-.6,1.03-1.06s.38-.98.38-1.57-.12-1.11-.38-1.57c-.25-.45-.59-.8-1.03-1.05-.43-.25-.92-.37-1.47-.37s-1.02.13-1.45.38c-.43.25-.78.6-1.03,1.05-.25.45-.38.97-.38,1.56s.12,1.11.37,1.57c.25.46.59.81,1.03,1.06.44.25.93.38,1.46.38s1.04-.12,1.47-.38Z"/>
    </g>
  </g>
  <path class="st1" d="M28.69,65.17c.15-.81,1.2-2.86,1.71-4.39.51-1.53.93-3.58,1.47-5.14s4.09-9.12,4.3-9.69c.21-.57.72-.39.9.15s1.99,5.17,3.13,7.13c1.14,1.96,1.2,3.58,1.65,4.96s1.99,5.54,2.41,6.35c.33.64.29,1.6.26,1.99.96.09,1.9.19,2.82.31-.06-.18-.23-.71-.52-1.31-.36-.75-.3-.66-.45-1.56s-.75-4.57-2.02-7.82-1.05-2.5-1.5-4.57c-.45-2.08-.69-4.18-1.9-8.6-1.2-4.42-.9-4.27-.72-5.9.18-1.62.21-5.54,1.74-6.17s6.14-2.83,6.35-3.16c.21-.33.33-.42.03-1.87s-1.68-4.78-2.2-5.51c-.51-.72-.06-1.08-.51-1.9-.45-.81-1.44-1.71-1.53-1.68-.09.03-.21.09-.03.39.18.3.9,1.44.51,1.74-.39.3-.63-.93-.9-.84-.27.09.15,1.23.39,1.44.24.21.96.75,1.11,1.23s.93,5.36,1.02,5.48c.09.12-.3.3-1.14.63s-3.67.78-4.48.69c-.81-.09-2.71.12-2.65-.9s.06-1.62.27-1.99c.21-.36.69-1.47.6-3.13-.09-1.65.14-2.29-.89-2.65-1.02-.36-2.33-.41-2.57-.05s-.55.69-.9.86c-.77.36-.51,1.04-.59,1.58-.17,1.1.11,2.9.68,3.14.57.24.72.36.63,1.38s-.03,1.29-.57,1.35-1.38.33-2.02-.24c-.63-.57-1.62-.63-2.62-.72s-1.41-1.05-2.98-1.44c-.24-.06-.84.21-.9-1.08-.06-1.29-.24-5.26-.27-5.54-.03-.27.96-.57,1.32-1.68.36-1.11-.33-.18-.57.03s-.75.45-.45-.48c.3-.93,1.41-1.68.6-1.44,0,0-1.84.99-2.2,3.22,0,0-.81,5.87-.36,7.7.27,1.11,3.07,2.8,5.32,3.79,1.23.54,1.29,1.38,1.47,2.47,0,0,.27,1.32.9,3.28.63,1.96,1.02,3.01.81,5.93-.21,2.92-1.5,4.06-1.99,8.33-.48,4.27-1.23,6.14-1.96,7.58-.72,1.44-1.91,6.06-2.32,7.7-.15.6-.33.81-.57,1.2-.16.26-.2.61-.21.82.94-.09,1.9-.18,2.88-.24.02-.28.07-.71.16-1.17Z"/>
  <path class="st1" d="M35.28,67.3c9.27,0,17.56,1.22,23.1,3.14v-.79c-5.71-1.92-13.91-3.12-23.01-3.12s-16.63,1.1-22.29,2.88v.73c5.52-1.75,13.43-2.84,22.2-2.84Z"/>
</svg>
