<?xml version="1.0" encoding="utf-8"?>
<!-- Generator: Adobe Illustrator 24.0.1, SVG Export Plug-In . SVG Version: 6.00 Build 0)  -->
<svg version="1.1" id="Layer_1" xmlns="http://www.w3.org/2000/svg" xmlns:xlink="http://www.w3.org/1999/xlink" x="0px" y="0px"
	 viewBox="0 0 255.1 56.7" style="enable-background:new 0 0 255.1 56.7;" xml:space="preserve">
<style type="text/css">
	.st0{fill:#83B2A6;}
	.st1{fill:#8FAE75;}
	.st2{fill:#A8B398;}
</style>
<g>
	<g>
		<path d="M91.4,12.4v21.1h-2.1V16.6L81,30.8H80l-8.3-14.1v16.8h-2.1V12.4h1.8L80.5,28l9.1-15.6H91.4z"/>
		<path d="M112,27.8h-11.7l-2.5,5.6h-2.3l9.6-21.1h2.2l9.6,21.1h-2.3L112,27.8z M111.2,26l-5.1-11.3L101.1,26H111.2z"/>
		<path d="M127.9,23.8h-4.8v9.7H121V12.4h2.2v9.5h4.8l7.1-9.5h2.4l-7.8,10.2l8.3,10.8h-2.6L127.9,23.8z"/>
		<path d="M144.9,32.3c-1.7-0.9-3-2.2-3.9-3.8c-1-1.6-1.4-3.5-1.4-5.5c0-2,0.5-3.9,1.4-5.5c1-1.6,2.3-2.9,4-3.8
			c1.7-0.9,3.6-1.4,5.7-1.4c1.6,0,3,0.3,4.3,0.8c1.3,0.5,2.4,1.3,3.4,2.3l-1.4,1.4c-1.6-1.7-3.7-2.5-6.2-2.5c-1.7,0-3.2,0.4-4.5,1.1
			c-1.4,0.8-2.4,1.8-3.2,3.1s-1.2,2.8-1.2,4.5c0,1.6,0.4,3.1,1.2,4.5s1.8,2.4,3.2,3.1c1.4,0.8,2.9,1.1,4.5,1.1
			c2.5,0,4.6-0.8,6.2-2.5l1.4,1.4c-0.9,1-2.1,1.8-3.4,2.3c-1.3,0.5-2.8,0.8-4.4,0.8C148.5,33.6,146.6,33.2,144.9,32.3z"/>
		<path d="M162.9,12.4h2.2v17.5l13.5-17.5h2v21.1h-2.2V16l-13.5,17.4h-2V12.4z"/>
		<path d="M209.6,12.4v21.1h-2.1V16.6l-8.3,14.2h-1.1l-8.3-14.1v16.8h-2.1V12.4h1.8l9.2,15.6l9.1-15.6H209.6z"/>
		<path d="M233.3,12.4l-9.6,17.7c-0.7,1.3-1.5,2.2-2.4,2.8c-0.9,0.6-1.9,0.9-3,0.9c-0.8,0-1.7-0.2-2.6-0.6l0.6-1.8
			c0.7,0.3,1.4,0.4,2,0.4c1.4,0,2.5-0.8,3.4-2.3l0.6-1l-8.6-16.2h2.4l7.3,14.3l7.5-14.3H233.3z"/>
		<path d="M240.1,32.3c-1.7-0.9-3-2.2-3.9-3.8c-1-1.6-1.4-3.5-1.4-5.5c0-2,0.5-3.9,1.4-5.5c1-1.6,2.3-2.9,4-3.8
			c1.7-0.9,3.6-1.4,5.7-1.4c1.6,0,3,0.3,4.3,0.8c1.3,0.5,2.4,1.3,3.4,2.3l-1.4,1.4c-1.6-1.7-3.7-2.5-6.2-2.5c-1.7,0-3.2,0.4-4.5,1.1
			s-2.4,1.8-3.2,3.1c-0.8,1.3-1.2,2.8-1.2,4.5c0,1.6,0.4,3.1,1.2,4.5c0.8,1.3,1.8,2.4,3.2,3.1c1.4,0.8,2.9,1.1,4.5,1.1
			c2.5,0,4.6-0.8,6.2-2.5l1.4,1.4c-0.9,1-2.1,1.8-3.4,2.3c-1.3,0.5-2.8,0.8-4.4,0.8C243.7,33.6,241.8,33.2,240.1,32.3z"/>
	</g>
	<g>
		<path class="st0" d="M42.3,42.5c-1-0.6-1.9-0.8-3-0.8c-2.6,0.1-4.8,2.3-4.8,5c0,0.8,0,0.8-0.8,1c-5.6,0.7-11.5-2-14.3-7.2
			c-1.2-2.3-1.8-4.8-1.6-7.4c0-0.1,0-0.2,0.1-0.4c0.2,0.2,0.3,0.4,0.3,0.5c1.6,2.8,3.9,4.8,7.1,5.7c3.6,0.9,7,0.3,10.1-1.8
			c3.6-2.5,5.7-6,6.3-10.2c1-6.8-1-12.6-6-17.3c-0.1-0.1-0.2-0.2-0.4-0.3c0,0,0,0,0-0.1C35.5,9,35.7,9,35.8,9.1
			c6.1,3.5,10.3,8.5,11.6,15.5c1.3,6.5-0.3,12.4-4.7,17.4C42.5,42.2,42.4,42.3,42.3,42.5z"/>
		<path class="st1" d="M32,10.6c4.8,2.8,7.6,6.9,7.9,12.5c0.3,4.6-1.6,8.4-5.2,11.2c0.2-0.7,0.4-1.4,0.6-2.2c0.6-3.7-0.2-7-2.8-9.8
			c-2.9-3.2-6.6-4.7-10.9-4.6c-5.9,0.1-10.5,2.7-14.2,7.2c-1.7,2.1-3,4.4-3.6,7c0,0.1-0.1,0.1-0.1,0.2c0,0-0.1,0-0.2,0.1
			c0-0.2-0.1-0.4-0.1-0.5c0-7.6,2.8-13.8,8.9-18.5c2.9-2.2,6.2-3.6,9.9-4.1c0.4-0.1,0.7,0,0.9,0.5c1.2,3.6,6.2,4.5,8.6,1.4
			C31.7,10.9,31.8,10.8,32,10.6z"/>
		<path class="st2" d="M35.3,51.2c-1.4,0.3-2.7,0.7-4.1,0.9c-3.1,0.5-6.2,0.4-9.2-0.4c-4.9-1.3-9-3.9-12.2-7.9
			c-0.4-0.6-0.8-1.2-1.2-1.8c-0.2-0.3-0.2-0.5,0.1-0.7c2.2-2,2.4-5.3,0.4-7.4c-0.5-0.5-1.3-0.9-2-1.3c-0.3-0.2-0.4-0.2-0.4-0.6
			c1.3-5.7,4.5-9.7,10.2-11.5c2.5-0.8,5-0.8,7.6-0.1c0.2,0,0.3,0.1,0.4,0.2c-1.3,0.6-2.6,1.1-3.7,1.8c-3.4,2.1-5.3,5.3-5.8,9.2
			c-0.7,5.9,1.5,10.7,5.9,14.5c3.8,3.3,8.3,4.8,13.3,4.7c0.2,0,0.3,0,0.5,0c0,0,0.1,0,0.1,0.1C35.3,51.1,35.3,51.2,35.3,51.2z"/>
		<path class="st1" d="M23.7,7.7c-0.1-2.2,1.9-4,4.1-3.9c2.1,0.1,3.9,1.8,3.9,3.9c0,2.4-1.8,4.2-4.1,4.2C25.5,11.8,23.7,10,23.7,7.7
			z"/>
		<path class="st0" d="M43.6,46.9c0.1,2-1.8,4-4.1,4c-2.3,0-4-1.9-4-4.3c0-2,2-3.7,4.3-3.7C41.9,42.9,43.6,44.7,43.6,46.9z"/>
		<path class="st2" d="M5.5,33.5c2.2,0,4,1.8,4,4c0,2.2-1.7,4-4,4c-2.2,0-4-1.8-4-4C1.5,35.3,3.3,33.5,5.5,33.5z"/>
	</g>
	<g>
		<path class="st0" d="M74.9,42.6c0.5,0.3,1,0.7,1.3,1.3c0.3,0.6,0.5,1.2,0.5,1.9c0,0.7-0.2,1.3-0.5,1.9c-0.3,0.5-0.7,1-1.3,1.3
			c-0.5,0.3-1.1,0.5-1.8,0.5c-0.7,0-1.3-0.2-1.9-0.5s-1-0.8-1.2-1.4V52h-0.5v-9.8h0.4v2c0.3-0.6,0.7-1.1,1.2-1.5
			c0.5-0.4,1.2-0.5,1.9-0.5C73.8,42.1,74.4,42.3,74.9,42.6z M74.7,48.5c0.5-0.3,0.8-0.6,1.1-1.1s0.4-1,0.4-1.7s-0.1-1.2-0.4-1.7
			s-0.6-0.9-1.1-1.1s-1-0.4-1.6-0.4s-1.1,0.1-1.6,0.4s-0.8,0.6-1.1,1.1s-0.4,1-0.4,1.7s0.1,1.2,0.4,1.7s0.6,0.9,1.1,1.1
			s1,0.4,1.6,0.4S74.2,48.8,74.7,48.5z"/>
		<path class="st0" d="M85,45.8h-6.3c0,0.6,0.2,1.1,0.4,1.6c0.3,0.5,0.7,0.8,1.1,1.1c0.5,0.3,1,0.4,1.6,0.4c0.5,0,0.9-0.1,1.3-0.3
			s0.8-0.4,1-0.8l0.3,0.3c-0.3,0.4-0.7,0.7-1.2,0.9c-0.5,0.2-1,0.3-1.5,0.3c-0.7,0-1.3-0.2-1.9-0.5c-0.5-0.3-1-0.7-1.3-1.3
			s-0.5-1.2-0.5-1.9s0.1-1.3,0.4-1.9s0.7-1,1.2-1.3c0.5-0.3,1.1-0.5,1.7-0.5c0.6,0,1.2,0.2,1.7,0.5s0.9,0.7,1.2,1.3
			c0.3,0.5,0.4,1.2,0.4,1.8V45.8z M80.2,42.9c-0.4,0.2-0.8,0.6-1,1c-0.3,0.4-0.4,0.9-0.4,1.5h5.8c0-0.6-0.2-1-0.4-1.5s-0.6-0.8-1-1
			c-0.4-0.2-0.9-0.4-1.4-0.4C81.1,42.5,80.6,42.6,80.2,42.9z"/>
		<path class="st0" d="M91.4,42.8c0.5,0.4,0.7,1.1,0.7,1.9v4.6h-0.4v-1.4c-0.2,0.5-0.6,0.8-1,1.1c-0.5,0.3-1,0.4-1.6,0.4
			c-0.8,0-1.4-0.2-1.9-0.6c-0.5-0.4-0.7-0.9-0.7-1.5c0-0.6,0.2-1,0.6-1.4c0.4-0.4,1.1-0.5,2-0.5h2.6v-0.7c0-0.7-0.2-1.2-0.6-1.6
			s-0.9-0.6-1.6-0.6c-0.5,0-1,0.1-1.4,0.3c-0.4,0.2-0.8,0.4-1.1,0.7l-0.2-0.3c0.3-0.3,0.8-0.6,1.3-0.8c0.5-0.2,1-0.3,1.5-0.3
			C90.3,42.1,90.9,42.3,91.4,42.8z M91.6,47.2v-1.5H89c-0.7,0-1.3,0.1-1.6,0.4c-0.3,0.3-0.5,0.7-0.5,1.1c0,0.5,0.2,0.9,0.6,1.2
			S88.3,49,89,49C90.3,49,91.1,48.4,91.6,47.2z"/>
		<path class="st0" d="M99.9,42.7c0.5,0.3,0.9,0.7,1.2,1.3c0.3,0.5,0.4,1.1,0.4,1.8c0,0.7-0.1,1.3-0.4,1.9c-0.3,0.5-0.7,1-1.2,1.3
			c-0.5,0.3-1.1,0.5-1.8,0.5c-0.8,0-1.4-0.2-2-0.6c-0.5-0.4-1-0.9-1.2-1.6c-0.3-0.7-0.4-1.5-0.4-2.4c0-1.1,0.1-2,0.4-2.7
			c0.3-0.7,0.6-1.3,1.2-1.7c0.5-0.4,1.2-0.7,2-0.9l3.1-0.8l0.1,0.4l-3,0.7c-0.8,0.2-1.4,0.5-1.9,0.8c-0.5,0.4-0.8,0.9-1.1,1.5
			c-0.2,0.6-0.4,1.5-0.4,2.5v0c0.2-0.7,0.6-1.3,1.2-1.8c0.6-0.4,1.3-0.7,2.1-0.7C98.8,42.2,99.4,42.4,99.9,42.7z M99.7,48.5
			c0.5-0.3,0.8-0.6,1.1-1.1c0.3-0.5,0.4-1,0.4-1.7c0-0.6-0.1-1.2-0.4-1.6c-0.3-0.5-0.6-0.8-1.1-1.1c-0.5-0.3-1-0.4-1.5-0.4
			S97,42.8,96.6,43s-0.8,0.6-1.1,1.1s-0.4,1-0.4,1.6c0,0.6,0.1,1.2,0.4,1.7s0.6,0.9,1.1,1.1c0.5,0.3,1,0.4,1.5,0.4
			S99.2,48.8,99.7,48.5z"/>
		<path class="st0" d="M104,42.2h0.5v6.4l5.4-6.4h0.4v7.1h-0.5v-6.4l-5.4,6.4H104V42.2z"/>
		<path class="st0" d="M118.7,42.2v7.1h-0.5v-6.7h-4l-0.1,2c-0.1,1-0.1,1.8-0.2,2.5c-0.1,0.7-0.3,1.2-0.5,1.6
			c-0.3,0.4-0.6,0.6-1.1,0.6c-0.1,0-0.3,0-0.5-0.1l0.1-0.4c0.1,0,0.3,0.1,0.3,0.1c0.4,0,0.7-0.2,0.9-0.6c0.2-0.4,0.4-0.9,0.4-1.5
			c0.1-0.6,0.1-1.4,0.2-2.3l0.1-2.4H118.7z"/>
		<path class="st0" d="M121.8,42.2h0.5v6.4l5.4-6.4h0.4v7.1h-0.5v-6.4l-5.4,6.4h-0.4V42.2z"/>
		<path class="st0" d="M135.7,42.6h-2.8v6.7h-0.5v-6.7h-2.9v-0.4h6.2V42.6z"/>
		<path class="st0" d="M141.5,42.8c0.5,0.4,0.7,1.1,0.7,1.9v4.6h-0.4v-1.4c-0.2,0.5-0.6,0.8-1,1.1c-0.5,0.3-1,0.4-1.6,0.4
			c-0.8,0-1.4-0.2-1.9-0.6s-0.7-0.9-0.7-1.5c0-0.6,0.2-1,0.6-1.4c0.4-0.4,1.1-0.5,2-0.5h2.6v-0.7c0-0.7-0.2-1.2-0.6-1.6
			s-0.9-0.6-1.6-0.6c-0.5,0-1,0.1-1.4,0.3c-0.4,0.2-0.8,0.4-1.1,0.7l-0.2-0.3c0.3-0.3,0.8-0.6,1.3-0.8c0.5-0.2,1-0.3,1.5-0.3
			C140.4,42.1,141,42.3,141.5,42.8z M141.7,47.2v-1.5h-2.6c-0.7,0-1.3,0.1-1.6,0.4c-0.3,0.3-0.5,0.7-0.5,1.1c0,0.5,0.2,0.9,0.6,1.2
			s0.9,0.4,1.6,0.4C140.4,49,141.2,48.4,141.7,47.2z"/>
		<path class="st0" d="M152.2,48.9v2.3h-0.4v-1.9h-6.7v-7.1h0.5v6.7h5.1v-6.7h0.5v6.7H152.2z"/>
		<path class="st0" d="M154.4,42.2h0.5v6.4l5.4-6.4h0.4v7.1h-0.5v-6.4l-5.4,6.4h-0.4V42.2z"/>
		<path class="st0" d="M164.7,48.9c-0.5-0.3-1-0.7-1.3-1.3c-0.3-0.6-0.5-1.2-0.5-1.9s0.2-1.3,0.5-1.9c0.3-0.6,0.7-1,1.3-1.3
			c0.5-0.3,1.1-0.5,1.8-0.5c0.7,0,1.3,0.2,1.8,0.5s1,0.7,1.3,1.3s0.5,1.2,0.5,1.9s-0.2,1.3-0.5,1.9s-0.7,1-1.3,1.3
			c-0.5,0.3-1.1,0.5-1.8,0.5C165.8,49.4,165.2,49.2,164.7,48.9z M168,48.5c0.5-0.3,0.8-0.6,1.1-1.1s0.4-1,0.4-1.7s-0.1-1.2-0.4-1.7
			c-0.3-0.5-0.6-0.9-1.1-1.1s-1-0.4-1.6-0.4s-1.1,0.1-1.6,0.4s-0.8,0.6-1.1,1.1c-0.3,0.5-0.4,1-0.4,1.7s0.1,1.2,0.4,1.7
			c0.3,0.5,0.6,0.9,1.1,1.1s1,0.4,1.6,0.4S167.6,48.8,168,48.5z"/>
		<path class="st0" d="M172.3,42.2h0.5v3.3h5.1v-3.3h0.5v7.1h-0.5v-3.4h-5.1v3.4h-0.5V42.2z"/>
		<path class="st0" d="M181.5,42.2h0.5v3.3h5.1v-3.3h0.5v7.1h-0.5v-3.4H182v3.4h-0.5V42.2z"/>
		<path class="st0" d="M195.4,45.4c0.5,0.4,0.7,0.9,0.7,1.6c0,0.8-0.2,1.3-0.7,1.7c-0.5,0.4-1.2,0.6-2.1,0.6l-2.5,0v-7.1h0.5v2.6
			l2.2,0C194.2,44.8,194.9,45,195.4,45.4z M195,48.5c0.4-0.3,0.6-0.8,0.6-1.4c0-0.6-0.2-1.1-0.6-1.4s-1-0.5-1.8-0.5l-2.1,0v3.8
			l2.1,0C194,49,194.6,48.8,195,48.5z M197.5,42.2h0.5v7.1h-0.5V42.2z"/>
		<path class="st0" d="M201,42.2h0.5v6.4l5.4-6.4h0.4v7.1h-0.5v-6.4l-5.4,6.4H201V42.2z M202.8,40.6c-0.4-0.3-0.5-0.7-0.5-1.2h0.4
			c0,0.4,0.2,0.7,0.4,0.9c0.3,0.2,0.6,0.4,1.1,0.4c0.4,0,0.8-0.1,1.1-0.4c0.3-0.2,0.4-0.5,0.4-0.9h0.4c0,0.5-0.2,0.9-0.5,1.2
			c-0.4,0.3-0.8,0.4-1.3,0.4S203.1,40.9,202.8,40.6z"/>
		<path class="st0" d="M221,48.9v2.3h-0.4v-1.9h-6.7v-7.1h0.5v6.7h5.1v-6.7h0.5v6.7H221z"/>
		<path class="st0" d="M229.1,45.8h-6.3c0,0.6,0.2,1.1,0.4,1.6c0.3,0.5,0.7,0.8,1.1,1.1c0.5,0.3,1,0.4,1.6,0.4
			c0.5,0,0.9-0.1,1.3-0.3s0.8-0.4,1-0.8l0.3,0.3c-0.3,0.4-0.7,0.7-1.2,0.9c-0.5,0.2-1,0.3-1.5,0.3c-0.7,0-1.3-0.2-1.9-0.5
			c-0.5-0.3-1-0.7-1.3-1.3c-0.3-0.6-0.5-1.2-0.5-1.9s0.1-1.3,0.4-1.9s0.7-1,1.2-1.3s1.1-0.5,1.7-0.5c0.6,0,1.2,0.2,1.7,0.5
			c0.5,0.3,0.9,0.7,1.2,1.3c0.3,0.5,0.4,1.2,0.4,1.8V45.8z M224.3,42.9c-0.4,0.2-0.8,0.6-1,1c-0.3,0.4-0.4,0.9-0.4,1.5h5.8
			c0-0.6-0.2-1-0.4-1.5s-0.6-0.8-1-1c-0.4-0.2-0.9-0.4-1.4-0.4C225.2,42.5,224.7,42.6,224.3,42.9z"/>
		<path class="st0" d="M231.4,42.2h0.5v3.3h5.1v-3.3h0.5v7.1H237v-3.4h-5.1v3.4h-0.5V42.2z"/>
		<path class="st0" d="M245.1,42.6h-2.8v6.7h-0.5v-6.7H239v-0.4h6.2V42.6z"/>
		<path class="st0" d="M252,42.6c0.5,0.3,1,0.7,1.3,1.3c0.3,0.6,0.5,1.2,0.5,1.9c0,0.7-0.2,1.3-0.5,1.9c-0.3,0.5-0.7,1-1.3,1.3
			c-0.5,0.3-1.1,0.5-1.8,0.5c-0.7,0-1.3-0.2-1.9-0.5c-0.5-0.3-1-0.8-1.2-1.4V52h-0.5v-9.8h0.4v2c0.3-0.6,0.7-1.1,1.2-1.5
			c0.5-0.4,1.2-0.5,1.9-0.5C250.8,42.1,251.4,42.3,252,42.6z M251.7,48.5c0.5-0.3,0.8-0.6,1.1-1.1s0.4-1,0.4-1.7s-0.1-1.2-0.4-1.7
			s-0.6-0.9-1.1-1.1c-0.5-0.3-1-0.4-1.6-0.4s-1.1,0.1-1.6,0.4c-0.5,0.3-0.8,0.6-1.1,1.1s-0.4,1-0.4,1.7s0.1,1.2,0.4,1.7
			s0.6,0.9,1.1,1.1c0.5,0.3,1,0.4,1.6,0.4S251.3,48.8,251.7,48.5z"/>
	</g>
</g>
</svg>
